<?xml version="1.0" encoding="utf-8"?>
<COLLADA xmlns="http://www.collada.org/2005/11/COLLADASchema" version="1.4.1" xmlns:xsi="http://www.w3.org/2001/XMLSchema-instance">
  <asset>
    <contributor>
      <author>Blender User</author>
      <authoring_tool>Blender 4.2.18 LTS commit date:2026-02-16, commit time:13:37, hash:d71e3422e438</authoring_tool>
    </contributor>
    <created>2026-05-01T23:19:05</created>
    <modified>2026-05-01T23:19:05</modified>
    <unit name="meter" meter="1"/>
    <up_axis>Z_UP</up_axis>
  </asset>
  <library_effects>
    <effect id="CHASIS-effect">
      <profile_COMMON>
        <technique sid="common">
          <lambert>
            <emission>
              <color sid="emission">0 0 0 1</color>
            </emission>
            <diffuse>
              <color sid="diffuse">1 0.5191048 0.0749505 1</color>
            </diffuse>
            <index_of_refraction>
              <float sid="ior">1.45</float>
            </index_of_refraction>
          </lambert>
        </technique>
      </profile_COMMON>
    </effect>
  </library_effects>
  <library_images/>
  <library_materials>
    <material id="CHASIS-material" name="CHASIS">
      <instance_effect url="#CHASIS-effect"/>
    </material>
  </library_materials>
  <library_geometries>
    <geometry id="Cube_021-mesh" name="Cube.021">
      <mesh>
        <source id="Cube_021-mesh-positions">
          <float_array id="Cube_021-mesh-positions-array" count="138">-1.680687 0.8989161 0.2520386 -1.680687 0.8989161 0.5020386 -1.680687 0.9989161 0.2520386 -1.680687 0.9989161 0.5020386 0.1193132 0.8989161 0.2520386 0.1193132 0.8989161 0.5020386 0.1193132 0.9989161 0.2520386 0.1193132 0.9989161 0.5020386 0.01931333 -1 0.2520386 0.01931333 -1 0.5020386 0.01931333 1 0.2520386 0.01931333 1 0.5020386 0.1193132 -1 0.2520386 0.1193132 -1 0.5020386 0.1193132 1 0.2520386 0.1193132 1 0.5020386 -1.680687 -1 0.2520386 -1.680687 -1 0.5020386 -1.680687 1 0.2520386 -1.680687 1 0.5020386 -1.580687 -1 0.2520386 -1.580687 -1 0.5020386 -1.580687 1 0.2520386 -1.580687 1 0.5020386 -1.680687 -0.998916 0.2520386 -1.680687 -0.998916 0.5020386 -1.680687 -0.898916 0.2520386 -1.680687 -0.898916 0.5020386 0.1193132 -0.998916 0.2520386 0.1193132 -0.998916 0.5020386 0.1193132 -0.898916 0.2520386 0.1193132 -0.898916 0.5020386 1.069313 0.6 0.1520388 1.069313 0.6 -0.4479613 1.069313 -0.6000002 0.1520388 1.069313 -0.6000002 -0.4479613 -0.9306868 0.6 0.1520388 -0.9306868 0.6 -0.4479613 -0.9306868 -0.6000002 0.1520388 -0.9306868 -0.6000002 -0.4479613 1.819314 1 0.2520386 1.819314 1 0.1520386 1.819314 -1 0.2520386 1.819314 -1 0.1520386 -1.680687 1 0.1520386 -1.680687 -1 0.1520386</float_array>
          <technique_common>
            <accessor source="#Cube_021-mesh-positions-array" count="46" stride="3">
              <param name="X" type="float"/>
              <param name="Y" type="float"/>
              <param name="Z" type="float"/>
            </accessor>
          </technique_common>
        </source>
        <source id="Cube_021-mesh-normals">
          <float_array id="Cube_021-mesh-normals-array" count="216">-1 0 0 0 1 0 1 0 0 0 -1 0 0 0 -1 0 0 1 -1 0 0 0 1 0 1 0 0 0 -1 0 0 0 -1 0 0 1 -1 0 0 0 1 0 1 0 0 0 -1 0 0 0 -1 0 0 1 -1 0 0 0 1 0 1 0 0 0 -1 0 0 0 -1 0 0 1 0 0 1 0 -1 0 -1 0 0 0 0 -1 1 0 0 0 1 0 0 0 1 0 -1 0 -1 0 0 0 0 -1 1 0 0 0 1 0 -1 0 0 0 1 0 1 0 0 0 -1 0 0 0 -1 0 0 1 -1 0 0 0 1 0 1 0 0 0 -1 0 0 0 -1 0 0 1 -1 0 0 0 1 0 1 0 0 0 -1 0 0 0 -1 0 0 1 -1 0 0 0 1 0 1 0 0 0 -1 0 0 0 -1 0 0 1 0 0 1 0 -1 0 -1 0 0 0 0 -1 1 0 0 0 1 0 0 0 1 0 -1 0 -1 0 0 0 0 -1 1 0 0 0 1 0</float_array>
          <technique_common>
            <accessor source="#Cube_021-mesh-normals-array" count="72" stride="3">
              <param name="X" type="float"/>
              <param name="Y" type="float"/>
              <param name="Z" type="float"/>
            </accessor>
          </technique_common>
        </source>
        <source id="Cube_021-mesh-map-0">
          <float_array id="Cube_021-mesh-map-0-array" count="432">0.375 0 0.625 0.25 0.375 0.25 0.375 0.25 0.625 0.5 0.375 0.5 0.375 0.5 0.625 0.75 0.375 0.75 0.375 0.75 0.625 1 0.375 1 0.125 0.5 0.375 0.75 0.125 0.75 0.625 0.5 0.875 0.75 0.625 0.75 0.375 0 0.625 0.25 0.375 0.25 0.375 0.25 0.625 0.5 0.375 0.5 0.375 0.5 0.625 0.75 0.375 0.75 0.375 0.75 0.625 1 0.375 1 0.125 0.5 0.375 0.75 0.125 0.75 0.625 0.5 0.875 0.75 0.625 0.75 0.375 0 0.625 0.25 0.375 0.25 0.375 0.25 0.625 0.5 0.375 0.5 0.375 0.5 0.625 0.75 0.375 0.75 0.375 0.75 0.625 1 0.375 1 0.125 0.5 0.375 0.75 0.125 0.75 0.625 0.5 0.875 0.75 0.625 0.75 0.375 0 0.625 0.25 0.375 0.25 0.375 0.25 0.625 0.5 0.375 0.5 0.375 0.5 0.625 0.75 0.375 0.75 0.375 0.75 0.625 1 0.375 1 0.125 0.5 0.375 0.75 0.125 0.75 0.625 0.5 0.875 0.75 0.625 0.75 0.625 0.5 0.875 0.75 0.625 0.75 0.375 0.75 0.625 1 0.375 1 0.375 0 0.625 0.25 0.375 0.25 0.125 0.5 0.375 0.75 0.125 0.75 0.375 0.5 0.625 0.75 0.375 0.75 0.375 0.25 0.625 0.5 0.375 0.5 0.625 0.5 0.875 0.75 0.625 0.75 0.375 0.75 0.625 1 0.375 1 0.375 0 0.625 0.25 0.375 0.25 0.125 0.5 0.375 0.75 0.125 0.75 0.375 0.5 0.625 0.75 0.375 0.75 0.375 0.25 0.625 0.5 0.375 0.5 0.375 0 0.625 0 0.625 0.25 0.375 0.25 0.625 0.25 0.625 0.5 0.375 0.5 0.625 0.5 0.625 0.75 0.375 0.75 0.625 0.75 0.625 1 0.125 0.5 0.375 0.5 0.375 0.75 0.625 0.5 0.875 0.5 0.875 0.75 0.375 0 0.625 0 0.625 0.25 0.375 0.25 0.625 0.25 0.625 0.5 0.375 0.5 0.625 0.5 0.625 0.75 0.375 0.75 0.625 0.75 0.625 1 0.125 0.5 0.375 0.5 0.375 0.75 0.625 0.5 0.875 0.5 0.875 0.75 0.375 0 0.625 0 0.625 0.25 0.375 0.25 0.625 0.25 0.625 0.5 0.375 0.5 0.625 0.5 0.625 0.75 0.375 0.75 0.625 0.75 0.625 1 0.125 0.5 0.375 0.5 0.375 0.75 0.625 0.5 0.875 0.5 0.875 0.75 0.375 0 0.625 0 0.625 0.25 0.375 0.25 0.625 0.25 0.625 0.5 0.375 0.5 0.625 0.5 0.625 0.75 0.375 0.75 0.625 0.75 0.625 1 0.125 0.5 0.375 0.5 0.375 0.75 0.625 0.5 0.875 0.5 0.875 0.75 0.625 0.5 0.875 0.5 0.875 0.75 0.375 0.75 0.625 0.75 0.625 1 0.375 0 0.625 0 0.625 0.25 0.125 0.5 0.375 0.5 0.375 0.75 0.375 0.5 0.625 0.5 0.625 0.75 0.375 0.25 0.625 0.25 0.625 0.5 0.625 0.5 0.875 0.5 0.875 0.75 0.375 0.75 0.625 0.75 0.625 1 0.375 0 0.625 0 0.625 0.25 0.125 0.5 0.375 0.5 0.375 0.75 0.375 0.5 0.625 0.5 0.625 0.75 0.375 0.25 0.625 0.25 0.625 0.5</float_array>
          <technique_common>
            <accessor source="#Cube_021-mesh-map-0-array" count="216" stride="2">
              <param name="S" type="float"/>
              <param name="T" type="float"/>
            </accessor>
          </technique_common>
        </source>
        <vertices id="Cube_021-mesh-vertices">
          <input semantic="POSITION" source="#Cube_021-mesh-positions"/>
        </vertices>
        <triangles material="CHASIS-material" count="72">
          <input semantic="VERTEX" source="#Cube_021-mesh-vertices" offset="0"/>
          <input semantic="NORMAL" source="#Cube_021-mesh-normals" offset="1"/>
          <input semantic="TEXCOORD" source="#Cube_021-mesh-map-0" offset="2" set="0"/>
          <p>0 0 0 3 0 1 2 0 2 2 1 3 7 1 4 6 1 5 6 2 6 5 2 7 4 2 8 4 3 9 1 3 10 0 3 11 2 4 12 4 4 13 0 4 14 7 5 15 1 5 16 5 5 17 8 6 18 11 6 19 10 6 20 10 7 21 15 7 22 14 7 23 14 8 24 13 8 25 12 8 26 12 9 27 9 9 28 8 9 29 10 10 30 12 10 31 8 10 32 15 11 33 9 11 34 13 11 35 16 12 36 19 12 37 18 12 38 18 13 39 23 13 40 22 13 41 22 14 42 21 14 43 20 14 44 20 15 45 17 15 46 16 15 47 18 16 48 20 16 49 16 16 50 23 17 51 17 17 52 21 17 53 24 18 54 27 18 55 26 18 56 26 19 57 31 19 58 30 19 59 30 20 60 29 20 61 28 20 62 28 21 63 25 21 64 24 21 65 26 22 66 28 22 67 24 22 68 31 23 69 25 23 70 29 23 71 32 24 72 38 24 73 34 24 74 35 25 75 38 25 76 39 25 77 39 26 78 36 26 79 37 26 80 37 27 81 35 27 82 39 27 83 33 28 84 34 28 85 35 28 86 37 29 87 32 29 88 33 29 89 40 30 90 16 30 91 42 30 92 43 31 93 16 31 94 45 31 95 45 32 96 18 32 97 44 32 98 44 33 99 43 33 100 45 33 101 41 34 102 42 34 103 43 34 104 44 35 105 40 35 106 41 35 107 0 36 108 1 36 109 3 36 110 2 37 111 3 37 112 7 37 113 6 38 114 7 38 115 5 38 116 4 39 117 5 39 118 1 39 119 2 40 120 6 40 121 4 40 122 7 41 123 3 41 124 1 41 125 8 42 126 9 42 127 11 42 128 10 43 129 11 43 130 15 43 131 14 44 132 15 44 133 13 44 134 12 45 135 13 45 136 9 45 137 10 46 138 14 46 139 12 46 140 15 47 141 11 47 142 9 47 143 16 48 144 17 48 145 19 48 146 18 49 147 19 49 148 23 49 149 22 50 150 23 50 151 21 50 152 20 51 153 21 51 154 17 51 155 18 52 156 22 52 157 20 52 158 23 53 159 19 53 160 17 53 161 24 54 162 25 54 163 27 54 164 26 55 165 27 55 166 31 55 167 30 56 168 31 56 169 29 56 170 28 57 171 29 57 172 25 57 173 26 58 174 30 58 175 28 58 176 31 59 177 27 59 178 25 59 179 32 60 180 36 60 181 38 60 182 35 61 183 34 61 184 38 61 185 39 62 186 38 62 187 36 62 188 37 63 189 33 63 190 35 63 191 33 64 192 32 64 193 34 64 194 37 65 195 36 65 196 32 65 197 40 66 198 18 66 199 16 66 200 43 67 201 42 67 202 16 67 203 45 68 204 16 68 205 18 68 206 44 69 207 41 69 208 43 69 209 41 70 210 40 70 211 42 70 212 44 71 213 18 71 214 40 71 215</p>
        </triangles>
      </mesh>
    </geometry>
  </library_geometries>
  <library_visual_scenes>
    <visual_scene id="Scene" name="Scene">
      <node id="tmp_export_Cube_021" name="tmp_export_Cube.021" type="NODE">
        <matrix sid="transform">1 0 0 0 0 1 0 0 0 0 1 0 0 0 0 1</matrix>
        <instance_geometry url="#Cube_021-mesh" name="tmp_export_Cube.021">
          <bind_material>
            <technique_common>
              <instance_material symbol="CHASIS-material" target="#CHASIS-material">
                <bind_vertex_input semantic="UVMap" input_semantic="TEXCOORD" input_set="0"/>
              </instance_material>
            </technique_common>
          </bind_material>
        </instance_geometry>
      </node>
    </visual_scene>
  </library_visual_scenes>
  <scene>
    <instance_visual_scene url="#Scene"/>
  </scene>
</COLLADA>