<?xml version="1.0" encoding="utf-8"?>
<COLLADA xmlns="http://www.collada.org/2005/11/COLLADASchema" version="1.4.1" xmlns:xsi="http://www.w3.org/2001/XMLSchema-instance">
  <asset>
    <contributor>
      <author>Blender User</author>
      <authoring_tool>Blender 4.2.18 LTS commit date:2026-02-16, commit time:13:37, hash:d71e3422e438</authoring_tool>
    </contributor>
    <created>2026-05-02T23:49:09</created>
    <modified>2026-05-02T23:49:09</modified>
    <unit name="meter" meter="1"/>
    <up_axis>Z_UP</up_axis>
  </asset>
  <library_effects>
    <effect id="GRIPPER_PLATFORM-effect">
      <profile_COMMON>
        <technique sid="common">
          <lambert>
            <emission>
              <color sid="emission">0 0 0 1</color>
            </emission>
            <diffuse>
              <color sid="diffuse">0.1352677 0.1352677 0.1352677 1</color>
            </diffuse>
            <index_of_refraction>
              <float sid="ior">1.5</float>
            </index_of_refraction>
          </lambert>
        </technique>
      </profile_COMMON>
    </effect>
    <effect id="ARM_1-effect">
      <profile_COMMON>
        <technique sid="common">
          <lambert>
            <emission>
              <color sid="emission">0 0 0 1</color>
            </emission>
            <diffuse>
              <color sid="diffuse">0.2826608 0.2826608 0.2826608 1</color>
            </diffuse>
            <index_of_refraction>
              <float sid="ior">1.5</float>
            </index_of_refraction>
          </lambert>
        </technique>
      </profile_COMMON>
    </effect>
  </library_effects>
  <library_images/>
  <library_materials>
    <material id="GRIPPER_PLATFORM-material" name="GRIPPER_PLATFORM">
      <instance_effect url="#GRIPPER_PLATFORM-effect"/>
    </material>
    <material id="ARM_1-material" name="ARM_1">
      <instance_effect url="#ARM_1-effect"/>
    </material>
  </library_materials>
  <library_geometries>
    <geometry id="Cylinder_024-mesh" name="Cylinder.024">
      <mesh>
        <source id="Cylinder_024-mesh-positions">
          <float_array id="Cylinder_024-mesh-positions-array" count="240">0 0.45 -0.02206736 0 0.45 0.02793258 0.0877906 0.4413533 -0.02206736 0.0877906 0.4413533 0.02793258 0.1722075 0.4157457 -0.02206736 0.1722075 0.4157457 0.02793258 0.2500066 0.3741613 -0.02206736 0.2500066 0.3741613 0.02793258 0.318198 0.318198 -0.02206736 0.318198 0.318198 0.02793258 0.3741613 0.2500066 -0.02206736 0.3741613 0.2500066 0.02793258 0.4157457 0.1722075 -0.02206736 0.4157457 0.1722075 0.02793258 0.4413533 0.0877906 -0.02206736 0.4413533 0.0877906 0.02793258 0.45 0 -0.02206736 0.45 0 0.02793258 0.4413533 -0.0877906 -0.02206736 0.4413533 -0.0877906 0.02793258 0.4157457 -0.1722075 -0.02206736 0.4157457 -0.1722075 0.02793258 0.3741613 -0.2500066 -0.02206736 0.3741613 -0.2500066 0.02793258 0.318198 -0.318198 -0.02206736 0.318198 -0.318198 0.02793258 0.2500066 -0.3741613 -0.02206736 0.2500066 -0.3741613 0.02793258 0.1722075 -0.4157457 -0.02206736 0.1722075 -0.4157457 0.02793258 0.0877906 -0.4413533 -0.02206736 0.0877906 -0.4413533 0.02793258 0 -0.45 -0.02206736 0 -0.45 0.02793258 -0.0877906 -0.4413533 -0.02206736 -0.0877906 -0.4413533 0.02793258 -0.1722075 -0.4157457 -0.02206736 -0.1722075 -0.4157457 0.02793258 -0.2500066 -0.3741613 -0.02206736 -0.2500066 -0.3741613 0.02793258 -0.318198 -0.318198 -0.02206736 -0.318198 -0.318198 0.02793258 -0.3741613 -0.2500066 -0.02206736 -0.3741613 -0.2500066 0.02793258 -0.4157457 -0.1722075 -0.02206736 -0.4157457 -0.1722075 0.02793258 -0.4413533 -0.0877906 -0.02206736 -0.4413533 -0.0877906 0.02793258 -0.45 0 -0.02206736 -0.45 0 0.02793258 -0.4413533 0.0877906 -0.02206736 -0.4413533 0.0877906 0.02793258 -0.4157457 0.1722075 -0.02206736 -0.4157457 0.1722075 0.02793258 -0.3741613 0.2500066 -0.02206736 -0.3741613 0.2500066 0.02793258 -0.318198 0.318198 -0.02206736 -0.318198 0.318198 0.02793258 -0.2500066 0.3741613 -0.02206736 -0.2500066 0.3741613 0.02793258 -0.1722075 0.4157457 -0.02206736 -0.1722075 0.4157457 0.02793258 -0.0877906 0.4413533 -0.02206736 -0.0877906 0.4413533 0.02793258 -0.04999995 -0.3499999 -0.03706741 -0.04999995 -0.3499999 -0.007067382 -0.04999995 0.3500001 -0.03706741 -0.04999995 0.3500001 -0.007067382 0.04999995 -0.3499999 -0.03706741 0.04999995 -0.3499999 -0.007067382 0.04999995 0.3500001 -0.03706741 0.04999995 0.3500001 -0.007067382 -0.35 -0.04999989 -0.03706741 -0.35 -0.04999989 -0.007067382 -0.35 0.05000007 -0.03706741 -0.35 0.05000007 -0.007067382 0.35 -0.04999989 -0.03706741 0.35 -0.04999989 -0.007067382 0.35 0.05000007 -0.03706741 0.35 0.05000007 -0.007067382</float_array>
          <technique_common>
            <accessor source="#Cylinder_024-mesh-positions-array" count="80" stride="3">
              <param name="X" type="float"/>
              <param name="Y" type="float"/>
              <param name="Z" type="float"/>
            </accessor>
          </technique_common>
        </source>
        <source id="Cylinder_024-mesh-normals">
          <float_array id="Cylinder_024-mesh-normals-array" count="444">0.09801727 0.9951847 0 0.2902846 0.9569403 0 0.4713966 0.8819213 0 0.6343936 0.7730103 0 0.7730103 0.6343936 0 0.8819213 0.4713966 0 0.9569403 0.2902846 0 0.9951847 0.09801727 0 0.9951847 -0.09801727 0 0.9569403 -0.2902846 0 0.8819213 -0.4713966 0 0.7730103 -0.6343936 0 0.6343936 -0.7730103 0 0.4713966 -0.8819213 0 0.2902846 -0.9569403 0 0.09801727 -0.9951847 0 -0.09801727 -0.9951847 0 -0.2902846 -0.9569403 0 -0.4713966 -0.8819213 0 -0.6343936 -0.7730103 0 -0.7730103 -0.6343936 0 -0.8819213 -0.4713966 0 -0.9569403 -0.2902846 0 -0.9951847 -0.09801727 0 -0.9951847 0.09801727 0 -0.9569403 0.2902846 0 -0.8819213 0.4713966 0 -0.7730103 0.6343936 0 -0.6343936 0.7730103 0 -0.4713966 0.8819213 0 0 0 1 -0.2902846 0.9569403 0 -0.09801727 0.9951847 0 0 0 -1 -1 0 0 0 1 0 1 0 0 0 -1 0 0 0 -1 0 0 1 -1 0 0 0 1 0 1 0 0 0 -1 0 0 0 -1 0 0 1 0.09801727 0.9951847 0 0.2902846 0.9569403 0 0.4713966 0.8819213 0 0.6343936 0.7730103 0 0.7730103 0.6343936 0 0.8819213 0.4713966 0 0.9569403 0.2902846 0 0.9951847 0.09801727 0 0.9951847 -0.09801727 0 0.9569403 -0.2902846 0 0.8819213 -0.4713966 0 0.7730103 -0.6343936 0 0.6343936 -0.7730103 0 0.4713966 -0.8819213 0 0.2902846 -0.9569403 0 0.09801727 -0.9951847 0 -0.09801727 -0.9951847 0 -0.2902846 -0.9569403 0 -0.4713966 -0.8819213 0 -0.6343936 -0.7730103 0 -0.7730103 -0.6343936 0 -0.8819213 -0.4713966 0 -0.9569403 -0.2902846 0 -0.9951847 -0.09801727 0 -0.9951847 0.09801727 0 -0.9569403 0.2902846 0 -0.8819213 0.4713966 0 -0.7730103 0.6343936 0 -0.6343936 0.7730103 0 -0.4713966 0.8819213 0 0 0 1 0 0 1 0 0 1 0 0 1 0 0 1 0 0 1 0 0 1 0 0 1 0 0 1 0 0 1 0 0 1 0 0 1 0 0 1 0 0 1 0 0 1 0 0 1 0 0 1 0 0 1 0 0 1 0 0 1 0 0 1 0 0 1 0 0 1 0 0 1 0 0 1 0 0 1 0 0 1 0 0 1 0 0 1 -0.2902846 0.9569403 0 -0.09801727 0.9951847 0 0 0 -1 0 0 -1 0 0 -1 0 0 -1 0 0 -1 0 0 -1 0 0 -1 0 0 -1 0 0 -1 0 0 -1 0 0 -1 0 0 -1 0 0 -1 0 0 -1 0 0 -1 0 0 -1 0 0 -1 0 0 -1 0 0 -1 0 0 -1 0 0 -1 0 0 -1 0 0 -1 0 0 -1 0 0 -1 0 0 -1 0 0 -1 0 0 -1 0 0 -1 -1 0 0 0 1 0 1 0 0 0 -1 0 0 0 -1 0 0 1 -1 0 0 0 1 0 1 0 0 0 -1 0 0 0 -1 0 0 1</float_array>
          <technique_common>
            <accessor source="#Cylinder_024-mesh-normals-array" count="148" stride="3">
              <param name="X" type="float"/>
              <param name="Y" type="float"/>
              <param name="Z" type="float"/>
            </accessor>
          </technique_common>
        </source>
        <source id="Cylinder_024-mesh-map-0">
          <float_array id="Cylinder_024-mesh-map-0-array" count="888">1 0.5 0.96875 1 0.96875 0.5 0.96875 0.5 0.9375 1 0.9375 0.5 0.9375 0.5 0.90625 1 0.90625 0.5 0.90625 0.5 0.875 1 0.875 0.5 0.875 0.5 0.84375 1 0.84375 0.5 0.84375 0.5 0.8125 1 0.8125 0.5 0.8125 0.5 0.78125 1 0.78125 0.5 0.78125 0.5 0.75 1 0.75 0.5 0.75 0.5 0.71875 1 0.71875 0.5 0.71875 0.5 0.6875 1 0.6875 0.5 0.6875 0.5 0.65625 1 0.65625 0.5 0.65625 0.5 0.625 1 0.625 0.5 0.625 0.5 0.59375 1 0.59375 0.5 0.59375 0.5 0.5625 1 0.5625 0.5 0.5625 0.5 0.53125 1 0.53125 0.5 0.53125 0.5 0.5 1 0.5 0.5 0.5 0.5 0.46875 1 0.46875 0.5 0.46875 0.5 0.4375 1 0.4375 0.5 0.4375 0.5 0.40625 1 0.40625 0.5 0.40625 0.5 0.375 1 0.375 0.5 0.375 0.5 0.34375 1 0.34375 0.5 0.34375 0.5 0.3125 1 0.3125 0.5 0.3125 0.5 0.28125 1 0.28125 0.5 0.28125 0.5 0.25 1 0.25 0.5 0.25 0.5 0.21875 1 0.21875 0.5 0.21875 0.5 0.1875 1 0.1875 0.5 0.1875 0.5 0.15625 1 0.15625 0.5 0.15625 0.5 0.125 1 0.125 0.5 0.125 0.5 0.09375 1 0.09375 0.5 0.09375 0.5 0.0625 1 0.0625 0.5 0.341844 0.02826887 0.4717311 0.1581559 0.341844 0.4717311 0.0625 0.5 0.03125 1 0.03125 0.5 0.03125 0.5 0 1 0 0.5 0.7968217 0.01461154 0.5146116 0.2031783 0.7031784 0.4853885 0.375 0 0.625 0.25 0.375 0.25 0.375 0.25 0.625 0.5 0.375 0.5 0.375 0.5 0.625 0.75 0.375 0.75 0.375 0.75 0.625 1 0.375 1 0.125 0.5 0.375 0.75 0.125 0.75 0.625 0.5 0.875 0.75 0.625 0.75 0.375 0 0.625 0.25 0.375 0.25 0.375 0.25 0.625 0.5 0.375 0.5 0.375 0.5 0.625 0.75 0.375 0.75 0.375 0.75 0.625 1 0.375 1 0.125 0.5 0.375 0.75 0.125 0.75 0.625 0.5 0.875 0.75 0.625 0.75 1 0.5 1 1 0.96875 1 0.96875 0.5 0.96875 1 0.9375 1 0.9375 0.5 0.9375 1 0.90625 1 0.90625 0.5 0.90625 1 0.875 1 0.875 0.5 0.875 1 0.84375 1 0.84375 0.5 0.84375 1 0.8125 1 0.8125 0.5 0.8125 1 0.78125 1 0.78125 0.5 0.78125 1 0.75 1 0.75 0.5 0.75 1 0.71875 1 0.71875 0.5 0.71875 1 0.6875 1 0.6875 0.5 0.6875 1 0.65625 1 0.65625 0.5 0.65625 1 0.625 1 0.625 0.5 0.625 1 0.59375 1 0.59375 0.5 0.59375 1 0.5625 1 0.5625 0.5 0.5625 1 0.53125 1 0.53125 0.5 0.53125 1 0.5 1 0.5 0.5 0.5 1 0.46875 1 0.46875 0.5 0.46875 1 0.4375 1 0.4375 0.5 0.4375 1 0.40625 1 0.40625 0.5 0.40625 1 0.375 1 0.375 0.5 0.375 1 0.34375 1 0.34375 0.5 0.34375 1 0.3125 1 0.3125 0.5 0.3125 1 0.28125 1 0.28125 0.5 0.28125 1 0.25 1 0.25 0.5 0.25 1 0.21875 1 0.21875 0.5 0.21875 1 0.1875 1 0.1875 0.5 0.1875 1 0.15625 1 0.15625 0.5 0.15625 1 0.125 1 0.125 0.5 0.125 1 0.09375 1 0.09375 0.5 0.09375 1 0.0625 1 0.341844 0.4717311 0.2968217 0.4853885 0.25 0.49 0.25 0.49 0.2031783 0.4853885 0.341844 0.4717311 0.2031783 0.4853885 0.1581559 0.4717311 0.341844 0.4717311 0.1581559 0.4717311 0.1166631 0.4495527 0.08029437 0.4197056 0.08029437 0.4197056 0.05044728 0.3833369 0.02826887 0.341844 0.02826887 0.341844 0.01461154 0.2968217 0.00999999 0.25 0.00999999 0.25 0.01461154 0.2031783 0.02826887 0.341844 0.01461154 0.2031783 0.02826887 0.1581559 0.02826887 0.341844 0.02826887 0.1581559 0.05044728 0.1166631 0.08029437 0.08029437 0.08029437 0.08029437 0.1166631 0.05044728 0.1581559 0.02826887 0.1581559 0.02826887 0.2031783 0.01461154 0.25 0.00999999 0.25 0.00999999 0.2968217 0.01461154 0.1581559 0.02826887 0.2968217 0.01461154 0.341844 0.02826887 0.1581559 0.02826887 0.341844 0.02826887 0.3833369 0.05044728 0.4197056 0.08029437 0.4197056 0.08029437 0.4495527 0.1166631 0.4717311 0.1581559 0.4717311 0.1581559 0.4853885 0.2031783 0.4717311 0.341844 0.4853885 0.2031783 0.49 0.25 0.4717311 0.341844 0.49 0.25 0.4853885 0.2968217 0.4717311 0.341844 0.4717311 0.341844 0.4495527 0.3833369 0.4197056 0.4197056 0.4197056 0.4197056 0.3833369 0.4495527 0.341844 0.4717311 0.1581559 0.4717311 0.08029437 0.4197056 0.02826887 0.341844 0.02826887 0.1581559 0.08029437 0.08029437 0.02826887 0.341844 0.08029437 0.08029437 0.1581559 0.02826887 0.02826887 0.341844 0.341844 0.02826887 0.4197056 0.08029437 0.4717311 0.1581559 0.4717311 0.341844 0.4197056 0.4197056 0.4717311 0.1581559 0.4197056 0.4197056 0.341844 0.4717311 0.4717311 0.1581559 0.341844 0.4717311 0.1581559 0.4717311 0.1581559 0.02826887 0.1581559 0.4717311 0.02826887 0.341844 0.1581559 0.02826887 0.1581559 0.02826887 0.341844 0.02826887 0.341844 0.4717311 0.0625 0.5 0.0625 1 0.03125 1 0.03125 0.5 0.03125 1 0 1 0.7031784 0.4853885 0.75 0.49 0.7968217 0.4853885 0.7968217 0.4853885 0.841844 0.4717311 0.7031784 0.4853885 0.841844 0.4717311 0.8833369 0.4495527 0.7031784 0.4853885 0.8833369 0.4495527 0.9197056 0.4197056 0.9853885 0.2968217 0.9197056 0.4197056 0.9495527 0.3833369 0.9853885 0.2968217 0.9495527 0.3833369 0.9717311 0.341844 0.9853885 0.2968217 0.9853885 0.2968217 0.99 0.25 0.9853885 0.2031783 0.9853885 0.2031783 0.9717311 0.1581559 0.9853885 0.2968217 0.9717311 0.1581559 0.9495527 0.1166631 0.9853885 0.2968217 0.9495527 0.1166631 0.9197056 0.08029437 0.7968217 0.01461154 0.9197056 0.08029437 0.8833369 0.05044728 0.7968217 0.01461154 0.8833369 0.05044728 0.841844 0.02826887 0.7968217 0.01461154 0.7968217 0.01461154 0.75 0.00999999 0.7031784 0.01461154 0.7031784 0.01461154 0.658156 0.02826887 0.7968217 0.01461154 0.658156 0.02826887 0.6166632 0.05044728 0.7968217 0.01461154 0.6166632 0.05044728 0.5802944 0.08029437 0.5146116 0.2031783 0.5802944 0.08029437 0.5504473 0.1166631 0.5146116 0.2031783 0.5504473 0.1166631 0.5282689 0.1581559 0.5146116 0.2031783 0.5146116 0.2031783 0.51 0.25 0.5146116 0.2968217 0.5146116 0.2968217 0.5282689 0.341844 0.5146116 0.2031783 0.5282689 0.341844 0.5504473 0.3833369 0.5146116 0.2031783 0.5504473 0.3833369 0.5802944 0.4197056 0.7031784 0.4853885 0.5802944 0.4197056 0.6166632 0.4495527 0.7031784 0.4853885 0.6166632 0.4495527 0.658156 0.4717311 0.7031784 0.4853885 0.7031784 0.4853885 0.8833369 0.4495527 0.9853885 0.2968217 0.9853885 0.2968217 0.9495527 0.1166631 0.7968217 0.01461154 0.7968217 0.01461154 0.6166632 0.05044728 0.5146116 0.2031783 0.5146116 0.2031783 0.5504473 0.3833369 0.7031784 0.4853885 0.7031784 0.4853885 0.9853885 0.2968217 0.7968217 0.01461154 0.375 0 0.625 0 0.625 0.25 0.375 0.25 0.625 0.25 0.625 0.5 0.375 0.5 0.625 0.5 0.625 0.75 0.375 0.75 0.625 0.75 0.625 1 0.125 0.5 0.375 0.5 0.375 0.75 0.625 0.5 0.875 0.5 0.875 0.75 0.375 0 0.625 0 0.625 0.25 0.375 0.25 0.625 0.25 0.625 0.5 0.375 0.5 0.625 0.5 0.625 0.75 0.375 0.75 0.625 0.75 0.625 1 0.125 0.5 0.375 0.5 0.375 0.75 0.625 0.5 0.875 0.5 0.875 0.75</float_array>
          <technique_common>
            <accessor source="#Cylinder_024-mesh-map-0-array" count="444" stride="2">
              <param name="S" type="float"/>
              <param name="T" type="float"/>
            </accessor>
          </technique_common>
        </source>
        <vertices id="Cylinder_024-mesh-vertices">
          <input semantic="POSITION" source="#Cylinder_024-mesh-positions"/>
        </vertices>
        <triangles material="GRIPPER_PLATFORM-material" count="124">
          <input semantic="VERTEX" source="#Cylinder_024-mesh-vertices" offset="0"/>
          <input semantic="NORMAL" source="#Cylinder_024-mesh-normals" offset="1"/>
          <input semantic="TEXCOORD" source="#Cylinder_024-mesh-map-0" offset="2" set="0"/>
          <p>0 0 0 3 0 1 2 0 2 2 1 3 5 1 4 4 1 5 4 2 6 7 2 7 6 2 8 6 3 9 9 3 10 8 3 11 8 4 12 11 4 13 10 4 14 10 5 15 13 5 16 12 5 17 12 6 18 15 6 19 14 6 20 14 7 21 17 7 22 16 7 23 16 8 24 19 8 25 18 8 26 18 9 27 21 9 28 20 9 29 20 10 30 23 10 31 22 10 32 22 11 33 25 11 34 24 11 35 24 12 36 27 12 37 26 12 38 26 13 39 29 13 40 28 13 41 28 14 42 31 14 43 30 14 44 30 15 45 33 15 46 32 15 47 32 16 48 35 16 49 34 16 50 34 17 51 37 17 52 36 17 53 36 18 54 39 18 55 38 18 56 38 19 57 41 19 58 40 19 59 40 20 60 43 20 61 42 20 62 42 21 63 45 21 64 44 21 65 44 22 66 47 22 67 46 22 68 46 23 69 49 23 70 48 23 71 48 24 72 51 24 73 50 24 74 50 25 75 53 25 76 52 25 77 52 26 78 55 26 79 54 26 80 54 27 81 57 27 82 56 27 83 56 28 84 59 28 85 58 28 86 58 29 87 61 29 88 60 29 89 29 30 90 21 30 91 5 30 92 60 31 93 63 31 94 62 31 95 62 32 96 1 32 97 0 32 98 30 33 99 46 33 100 62 33 101 0 46 138 1 46 139 3 46 140 2 47 141 3 47 142 5 47 143 4 48 144 5 48 145 7 48 146 6 49 147 7 49 148 9 49 149 8 50 150 9 50 151 11 50 152 10 51 153 11 51 154 13 51 155 12 52 156 13 52 157 15 52 158 14 53 159 15 53 160 17 53 161 16 54 162 17 54 163 19 54 164 18 55 165 19 55 166 21 55 167 20 56 168 21 56 169 23 56 170 22 57 171 23 57 172 25 57 173 24 58 174 25 58 175 27 58 176 26 59 177 27 59 178 29 59 179 28 60 180 29 60 181 31 60 182 30 61 183 31 61 184 33 61 185 32 62 186 33 62 187 35 62 188 34 63 189 35 63 190 37 63 191 36 64 192 37 64 193 39 64 194 38 65 195 39 65 196 41 65 197 40 66 198 41 66 199 43 66 200 42 67 201 43 67 202 45 67 203 44 68 204 45 68 205 47 68 206 46 69 207 47 69 208 49 69 209 48 70 210 49 70 211 51 70 212 50 71 213 51 71 214 53 71 215 52 72 216 53 72 217 55 72 218 54 73 219 55 73 220 57 73 221 56 74 222 57 74 223 59 74 224 58 75 225 59 75 226 61 75 227 5 76 228 3 76 229 1 76 230 1 77 231 63 77 232 5 77 233 63 78 234 61 78 235 5 78 236 61 79 237 59 79 238 57 79 239 57 80 240 55 80 241 53 80 242 53 81 243 51 81 244 49 81 245 49 82 246 47 82 247 53 82 248 47 83 249 45 83 250 53 83 251 45 84 252 43 84 253 41 84 254 41 85 255 39 85 256 37 85 257 37 86 258 35 86 259 33 86 260 33 87 261 31 87 262 37 87 263 31 88 264 29 88 265 37 88 266 29 89 267 27 89 268 25 89 269 25 90 270 23 90 271 21 90 272 21 91 273 19 91 274 13 91 275 19 92 276 17 92 277 13 92 278 17 93 279 15 93 280 13 93 281 13 94 282 11 94 283 9 94 284 9 95 285 7 95 286 5 95 287 61 96 288 57 96 289 53 96 290 45 97 291 41 97 292 53 97 293 41 98 294 37 98 295 53 98 296 29 99 297 25 99 298 21 99 299 13 100 300 9 100 301 21 100 302 9 101 303 5 101 304 21 101 305 5 102 306 61 102 307 37 102 308 61 103 309 53 103 310 37 103 311 37 104 312 29 104 313 5 104 314 60 105 315 61 105 316 63 105 317 62 106 318 63 106 319 1 106 320 62 107 321 0 107 322 2 107 323 2 108 324 4 108 325 62 108 326 4 109 327 6 109 328 62 109 329 6 110 330 8 110 331 14 110 332 8 111 333 10 111 334 14 111 335 10 112 336 12 112 337 14 112 338 14 113 339 16 113 340 18 113 341 18 114 342 20 114 343 14 114 344 20 115 345 22 115 346 14 115 347 22 116 348 24 116 349 30 116 350 24 117 351 26 117 352 30 117 353 26 118 354 28 118 355 30 118 356 30 119 357 32 119 358 34 119 359 34 120 360 36 120 361 30 120 362 36 121 363 38 121 364 30 121 365 38 122 366 40 122 367 46 122 368 40 123 369 42 123 370 46 123 371 42 124 372 44 124 373 46 124 374 46 125 375 48 125 376 50 125 377 50 126 378 52 126 379 46 126 380 52 127 381 54 127 382 46 127 383 54 128 384 56 128 385 62 128 386 56 129 387 58 129 388 62 129 389 58 130 390 60 130 391 62 130 392 62 131 393 6 131 394 14 131 395 14 132 396 22 132 397 30 132 398 30 133 399 38 133 400 46 133 401 46 134 402 54 134 403 62 134 404 62 135 405 14 135 406 30 135 407</p>
        </triangles>
        <triangles material="ARM_1-material" count="24">
          <input semantic="VERTEX" source="#Cylinder_024-mesh-vertices" offset="0"/>
          <input semantic="NORMAL" source="#Cylinder_024-mesh-normals" offset="1"/>
          <input semantic="TEXCOORD" source="#Cylinder_024-mesh-map-0" offset="2" set="0"/>
          <p>64 34 102 67 34 103 66 34 104 66 35 105 71 35 106 70 35 107 70 36 108 69 36 109 68 36 110 68 37 111 65 37 112 64 37 113 66 38 114 68 38 115 64 38 116 71 39 117 65 39 118 69 39 119 72 40 120 75 40 121 74 40 122 74 41 123 79 41 124 78 41 125 78 42 126 77 42 127 76 42 128 76 43 129 73 43 130 72 43 131 74 44 132 76 44 133 72 44 134 79 45 135 73 45 136 77 45 137 64 136 408 65 136 409 67 136 410 66 137 411 67 137 412 71 137 413 70 138 414 71 138 415 69 138 416 68 139 417 69 139 418 65 139 419 66 140 420 70 140 421 68 140 422 71 141 423 67 141 424 65 141 425 72 142 426 73 142 427 75 142 428 74 143 429 75 143 430 79 143 431 78 144 432 79 144 433 77 144 434 76 145 435 77 145 436 73 145 437 74 146 438 78 146 439 76 146 440 79 147 441 75 147 442 73 147 443</p>
        </triangles>
      </mesh>
    </geometry>
  </library_geometries>
  <library_visual_scenes>
    <visual_scene id="Scene" name="Scene">
      <node id="tmp_export_Cylinder_024" name="tmp_export_Cylinder.024" type="NODE">
        <matrix sid="transform">1 0 0 0 0 1 0 0 0 0 1 0 0 0 0 1</matrix>
        <instance_geometry url="#Cylinder_024-mesh" name="tmp_export_Cylinder.024">
          <bind_material>
            <technique_common>
              <instance_material symbol="GRIPPER_PLATFORM-material" target="#GRIPPER_PLATFORM-material">
                <bind_vertex_input semantic="UVMap" input_semantic="TEXCOORD" input_set="0"/>
              </instance_material>
              <instance_material symbol="ARM_1-material" target="#ARM_1-material">
                <bind_vertex_input semantic="UVMap" input_semantic="TEXCOORD" input_set="0"/>
              </instance_material>
            </technique_common>
          </bind_material>
        </instance_geometry>
      </node>
    </visual_scene>
  </library_visual_scenes>
  <scene>
    <instance_visual_scene url="#Scene"/>
  </scene>
</COLLADA>