<?xml version="1.0" encoding="utf-8"?>
<COLLADA xmlns="http://www.collada.org/2005/11/COLLADASchema" version="1.4.1" xmlns:xsi="http://www.w3.org/2001/XMLSchema-instance">
  <asset>
    <contributor>
      <author>Blender User</author>
      <authoring_tool>Blender 4.2.18 LTS commit date:2026-02-16, commit time:13:37, hash:d71e3422e438</authoring_tool>
    </contributor>
    <created>2026-05-02T23:49:08</created>
    <modified>2026-05-02T23:49:08</modified>
    <unit name="meter" meter="1"/>
    <up_axis>Z_UP</up_axis>
  </asset>
  <library_effects>
    <effect id="EJE-effect">
      <profile_COMMON>
        <technique sid="common">
          <lambert>
            <emission>
              <color sid="emission">0 0 0 1</color>
            </emission>
            <diffuse>
              <color sid="diffuse">0.3844748 0.07061699 0.05341027 1</color>
            </diffuse>
            <index_of_refraction>
              <float sid="ior">1.45</float>
            </index_of_refraction>
          </lambert>
        </technique>
      </profile_COMMON>
    </effect>
  </library_effects>
  <library_images/>
  <library_materials>
    <material id="EJE-material" name="EJE">
      <instance_effect url="#EJE-effect"/>
    </material>
  </library_materials>
  <library_geometries>
    <geometry id="Cylinder_010-mesh" name="Cylinder.010">
      <mesh>
        <source id="Cylinder_010-mesh-positions">
          <float_array id="Cylinder_010-mesh-positions-array" count="216">0.3489246 -0.3415299 -0.1416656 0.3489246 -0.3415299 0.05833441 0.3635564 -0.342971 -0.1416656 0.3635564 -0.342971 0.05833441 0.3776259 -0.347239 -0.1416656 0.3776259 -0.347239 0.05833441 0.3905923 -0.3541697 -0.1416656 0.3905923 -0.3541697 0.05833441 0.4019576 -0.3634969 -0.1416656 0.4019576 -0.3634969 0.05833441 0.4112848 -0.3748621 -0.1416656 0.4112848 -0.3748621 0.05833441 0.4182156 -0.3878287 -0.1416656 0.4182156 -0.3878287 0.05833441 0.4224835 -0.4018982 -0.1416656 0.4224835 -0.4018982 0.05833441 0.4239246 -0.4165299 -0.1416656 0.4239246 -0.4165299 0.05833441 0.4224835 -0.4311617 -0.1416656 0.4224835 -0.4311617 0.05833441 0.4182156 -0.4452312 -0.1416656 0.4182156 -0.4452312 0.05833441 0.4112848 -0.4581977 -0.1416656 0.4112848 -0.4581977 0.05833441 0.4019576 -0.469563 -0.1416656 0.4019576 -0.469563 0.05833441 0.3905923 -0.4788901 -0.1416656 0.3905923 -0.4788901 0.05833441 0.3776259 -0.4858209 -0.1416656 0.3776259 -0.4858209 0.05833441 0.3635564 -0.4900888 -0.1416656 0.3635564 -0.4900888 0.05833441 0.3489246 -0.49153 -0.1416656 0.3489246 -0.49153 0.05833441 0.3342928 -0.4900888 -0.1416656 0.3342928 -0.4900888 0.05833441 0.3202233 -0.4858209 -0.1416656 0.3202233 -0.4858209 0.05833441 0.3072568 -0.4788901 -0.1416656 0.3072568 -0.4788901 0.05833441 0.2958916 -0.469563 -0.1416656 0.2958916 -0.469563 0.05833441 0.2865644 -0.4581977 -0.1416656 0.2865644 -0.4581977 0.05833441 0.2796337 -0.4452312 -0.1416656 0.2796337 -0.4452312 0.05833441 0.2753657 -0.4311617 -0.1416656 0.2753657 -0.4311617 0.05833441 0.2739246 -0.4165299 -0.1416656 0.2739246 -0.4165299 0.05833441 0.2753657 -0.4018982 -0.1416656 0.2753657 -0.4018982 0.05833441 0.2796337 -0.3878287 -0.1416656 0.2796337 -0.3878287 0.05833441 0.2865644 -0.3748621 -0.1416656 0.2865644 -0.3748621 0.05833441 0.2958916 -0.3634969 -0.1416656 0.2958916 -0.3634969 0.05833441 0.3072568 -0.3541697 -0.1416656 0.3072568 -0.3541697 0.05833441 0.3202233 -0.347239 -0.1416656 0.3202233 -0.347239 0.05833441 0.3342928 -0.342971 -0.1416656 0.3342928 -0.342971 0.05833441 0.297523 -0.4711279 0.05750322 -0.5381008 0.52473 0.05750328 0.297523 -0.4711279 -0.04249674 -0.5381008 0.52473 -0.04249668 0.4124297 -0.3747097 0.05750322 -0.4231941 0.6211481 0.05750328 0.4124297 -0.3747097 -0.04249674 -0.4231941 0.6211481 -0.04249668</float_array>
          <technique_common>
            <accessor source="#Cylinder_010-mesh-positions-array" count="72" stride="3">
              <param name="X" type="float"/>
              <param name="Y" type="float"/>
              <param name="Z" type="float"/>
            </accessor>
          </technique_common>
        </source>
        <source id="Cylinder_010-mesh-normals">
          <float_array id="Cylinder_010-mesh-normals-array" count="408">0.09801822 0.9951847 0 0.2902843 0.9569404 0 0.4713972 0.881921 0 0.6343922 0.7730114 0 0.7730114 0.6343922 0 0.881921 0.4713972 0 0.9569404 0.2902843 0 0.9951847 0.09801822 0 0.9951847 -0.09801822 0 0.9569404 -0.2902843 0 0.881921 -0.4713972 0 0.7730114 -0.6343922 0 0.6343922 -0.7730114 0 0.4713972 -0.881921 0 0.2902843 -0.9569404 0 0.09801822 -0.9951847 0 -0.09801822 -0.9951847 0 -0.2902843 -0.9569404 0 -0.4713972 -0.881921 0 -0.6343922 -0.7730114 0 -0.7730114 -0.6343922 0 -0.881921 -0.4713972 0 -0.9569404 -0.2902843 0 -0.9951847 -0.09801822 0 -0.9951847 0.09801822 0 -0.9569404 0.2902843 0 -0.881921 0.4713972 0 -0.7730114 0.6343922 0 -0.6343922 0.7730114 0 -0.4713972 0.881921 0 0 0 1 -0.2902843 0.9569404 0 -0.09801822 0.9951847 0 0 0 -1 -0.7660445 -0.6427876 0 0 0 -1 0.7660444 0.6427876 0 0 0 1 0.6427875 -0.7660446 0 -0.6427876 0.7660446 0 0.09801822 0.9951847 0 0.2902843 0.9569404 0 0.4713972 0.881921 0 0.6343922 0.7730114 0 0.7730114 0.6343922 0 0.881921 0.4713972 0 0.9569404 0.2902843 0 0.9951847 0.09801822 0 0.9951847 -0.09801822 0 0.9569404 -0.2902843 0 0.881921 -0.4713972 0 0.7730114 -0.6343922 0 0.6343922 -0.7730114 0 0.4713972 -0.881921 0 0.2902843 -0.9569404 0 0.09801822 -0.9951847 0 -0.09801822 -0.9951847 0 -0.2902843 -0.9569404 0 -0.4713972 -0.881921 0 -0.6343922 -0.7730114 0 -0.7730114 -0.6343922 0 -0.881921 -0.4713972 0 -0.9569404 -0.2902843 0 -0.9951847 -0.09801822 0 -0.9951847 0.09801822 0 -0.9569404 0.2902843 0 -0.881921 0.4713972 0 -0.7730114 0.6343922 0 -0.6343922 0.7730114 0 -0.4713972 0.881921 0 0 0 1 0 0 1 0 0 1 0 0 1 0 0 1 0 0 1 0 0 1 0 0 1 0 0 1 0 0 1 0 0 1 0 0 1 0 0 1 0 0 1 0 0 1 0 0 1 0 0 1 0 0 1 0 0 1 0 0 1 0 0 1 0 0 1 0 0 1 0 0 1 0 0 1 0 0 1 0 0 1 0 0 1 0 0 1 -0.2902843 0.9569404 0 -0.09801822 0.9951847 0 0 0 -1 0 0 -1 0 0 -1 0 0 -1 0 0 -1 0 0 -1 0 0 -1 0 0 -1 0 0 -1 0 0 -1 0 0 -1 0 0 -1 0 0 -1 0 0 -1 0 0 -1 0 0 -1 0 0 -1 0 0 -1 0 0 -1 0 0 -1 0 0 -1 0 0 -1 0 0 -1 0 0 -1 0 0 -1 0 0 -1 0 0 -1 0 0 -1 0 0 -1 -0.7660445 -0.6427876 0 0 0 -1 0.7660445 0.6427876 0 0 0 1 0.6427875 -0.7660446 0 -0.6427875 0.7660446 0</float_array>
          <technique_common>
            <accessor source="#Cylinder_010-mesh-normals-array" count="136" stride="3">
              <param name="X" type="float"/>
              <param name="Y" type="float"/>
              <param name="Z" type="float"/>
            </accessor>
          </technique_common>
        </source>
        <source id="Cylinder_010-mesh-map-0">
          <float_array id="Cylinder_010-mesh-map-0-array" count="816">1 0.5 0.96875 1 0.96875 0.5 0.96875 0.5 0.9375 1 0.9375 0.5 0.9375 0.5 0.90625 1 0.90625 0.5 0.90625 0.5 0.875 1 0.875 0.5 0.875 0.5 0.84375 1 0.84375 0.5 0.84375 0.5 0.8125 1 0.8125 0.5 0.8125 0.5 0.78125 1 0.78125 0.5 0.78125 0.5 0.75 1 0.75 0.5 0.75 0.5 0.71875 1 0.71875 0.5 0.71875 0.5 0.6875 1 0.6875 0.5 0.6875 0.5 0.65625 1 0.65625 0.5 0.65625 0.5 0.625 1 0.625 0.5 0.625 0.5 0.59375 1 0.59375 0.5 0.59375 0.5 0.5625 1 0.5625 0.5 0.5625 0.5 0.53125 1 0.53125 0.5 0.53125 0.5 0.5 1 0.5 0.5 0.5 0.5 0.46875 1 0.46875 0.5 0.46875 0.5 0.4375 1 0.4375 0.5 0.4375 0.5 0.40625 1 0.40625 0.5 0.40625 0.5 0.375 1 0.375 0.5 0.375 0.5 0.34375 1 0.34375 0.5 0.34375 0.5 0.3125 1 0.3125 0.5 0.3125 0.5 0.28125 1 0.28125 0.5 0.28125 0.5 0.25 1 0.25 0.5 0.25 0.5 0.21875 1 0.21875 0.5 0.21875 0.5 0.1875 1 0.1875 0.5 0.1875 0.5 0.15625 1 0.15625 0.5 0.15625 0.5 0.125 1 0.125 0.5 0.125 0.5 0.09375 1 0.09375 0.5 0.09375 0.5 0.0625 1 0.0625 0.5 0.1581559 0.02826887 0.4717311 0.1581559 0.341844 0.4717311 0.0625 0.5 0.03125 1 0.03125 0.5 0.03125 0.5 0 1 0 0.5 0.7968217 0.01461154 0.5146116 0.2031783 0.7031784 0.4853885 0.375 0 0.625 0.25 0.375 0.25 0.375 0.25 0.625 0.5 0.375 0.5 0.375 0.5 0.625 0.75 0.375 0.75 0.375 0.75 0.625 1 0.375 1 0.125 0.5 0.375 0.75 0.125 0.75 0.625 0.5 0.875 0.75 0.625 0.75 1 0.5 1 1 0.96875 1 0.96875 0.5 0.96875 1 0.9375 1 0.9375 0.5 0.9375 1 0.90625 1 0.90625 0.5 0.90625 1 0.875 1 0.875 0.5 0.875 1 0.84375 1 0.84375 0.5 0.84375 1 0.8125 1 0.8125 0.5 0.8125 1 0.78125 1 0.78125 0.5 0.78125 1 0.75 1 0.75 0.5 0.75 1 0.71875 1 0.71875 0.5 0.71875 1 0.6875 1 0.6875 0.5 0.6875 1 0.65625 1 0.65625 0.5 0.65625 1 0.625 1 0.625 0.5 0.625 1 0.59375 1 0.59375 0.5 0.59375 1 0.5625 1 0.5625 0.5 0.5625 1 0.53125 1 0.53125 0.5 0.53125 1 0.5 1 0.5 0.5 0.5 1 0.46875 1 0.46875 0.5 0.46875 1 0.4375 1 0.4375 0.5 0.4375 1 0.40625 1 0.40625 0.5 0.40625 1 0.375 1 0.375 0.5 0.375 1 0.34375 1 0.34375 0.5 0.34375 1 0.3125 1 0.3125 0.5 0.3125 1 0.28125 1 0.28125 0.5 0.28125 1 0.25 1 0.25 0.5 0.25 1 0.21875 1 0.21875 0.5 0.21875 1 0.1875 1 0.1875 0.5 0.1875 1 0.15625 1 0.15625 0.5 0.15625 1 0.125 1 0.125 0.5 0.125 1 0.09375 1 0.09375 0.5 0.09375 1 0.0625 1 0.341844 0.4717311 0.2968217 0.4853885 0.1581559 0.4717311 0.2968217 0.4853885 0.25 0.49 0.1581559 0.4717311 0.25 0.49 0.2031783 0.4853885 0.1581559 0.4717311 0.1581559 0.4717311 0.1166631 0.4495527 0.02826887 0.341844 0.1166631 0.4495527 0.08029437 0.4197056 0.02826887 0.341844 0.08029437 0.4197056 0.05044728 0.3833369 0.02826887 0.341844 0.02826887 0.341844 0.01461154 0.2968217 0.00999999 0.25 0.00999999 0.25 0.01461154 0.2031783 0.02826887 0.341844 0.01461154 0.2031783 0.02826887 0.1581559 0.02826887 0.341844 0.02826887 0.1581559 0.05044728 0.1166631 0.1581559 0.02826887 0.05044728 0.1166631 0.08029437 0.08029437 0.1581559 0.02826887 0.08029437 0.08029437 0.1166631 0.05044728 0.1581559 0.02826887 0.1581559 0.02826887 0.2031783 0.01461154 0.341844 0.02826887 0.2031783 0.01461154 0.25 0.00999999 0.341844 0.02826887 0.25 0.00999999 0.2968217 0.01461154 0.341844 0.02826887 0.341844 0.02826887 0.3833369 0.05044728 0.4717311 0.1581559 0.3833369 0.05044728 0.4197056 0.08029437 0.4717311 0.1581559 0.4197056 0.08029437 0.4495527 0.1166631 0.4717311 0.1581559 0.4717311 0.1581559 0.4853885 0.2031783 0.4717311 0.341844 0.4853885 0.2031783 0.49 0.25 0.4717311 0.341844 0.49 0.25 0.4853885 0.2968217 0.4717311 0.341844 0.4717311 0.341844 0.4495527 0.3833369 0.341844 0.4717311 0.4495527 0.3833369 0.4197056 0.4197056 0.341844 0.4717311 0.4197056 0.4197056 0.3833369 0.4495527 0.341844 0.4717311 0.341844 0.4717311 0.1581559 0.4717311 0.02826887 0.341844 0.02826887 0.341844 0.02826887 0.1581559 0.1581559 0.02826887 0.1581559 0.02826887 0.341844 0.02826887 0.4717311 0.1581559 0.4717311 0.1581559 0.4717311 0.341844 0.341844 0.4717311 0.341844 0.4717311 0.02826887 0.341844 0.1581559 0.02826887 0.0625 0.5 0.0625 1 0.03125 1 0.03125 0.5 0.03125 1 0 1 0.7031784 0.4853885 0.75 0.49 0.7968217 0.4853885 0.7968217 0.4853885 0.841844 0.4717311 0.8833369 0.4495527 0.8833369 0.4495527 0.9197056 0.4197056 0.9495527 0.3833369 0.9495527 0.3833369 0.9717311 0.341844 0.9853885 0.2968217 0.9853885 0.2968217 0.99 0.25 0.9853885 0.2031783 0.9853885 0.2031783 0.9717311 0.1581559 0.9495527 0.1166631 0.9495527 0.1166631 0.9197056 0.08029437 0.8833369 0.05044728 0.8833369 0.05044728 0.841844 0.02826887 0.7968217 0.01461154 0.7968217 0.01461154 0.75 0.00999999 0.7031784 0.01461154 0.7031784 0.01461154 0.658156 0.02826887 0.6166632 0.05044728 0.6166632 0.05044728 0.5802944 0.08029437 0.5504473 0.1166631 0.5504473 0.1166631 0.5282689 0.1581559 0.5146116 0.2031783 0.5146116 0.2031783 0.51 0.25 0.5146116 0.2968217 0.5146116 0.2968217 0.5282689 0.341844 0.5504473 0.3833369 0.5504473 0.3833369 0.5802944 0.4197056 0.6166632 0.4495527 0.6166632 0.4495527 0.658156 0.4717311 0.7031784 0.4853885 0.7031784 0.4853885 0.7968217 0.4853885 0.9853885 0.2968217 0.7968217 0.4853885 0.8833369 0.4495527 0.9853885 0.2968217 0.8833369 0.4495527 0.9495527 0.3833369 0.9853885 0.2968217 0.9853885 0.2968217 0.9853885 0.2031783 0.7968217 0.01461154 0.9853885 0.2031783 0.9495527 0.1166631 0.7968217 0.01461154 0.9495527 0.1166631 0.8833369 0.05044728 0.7968217 0.01461154 0.7968217 0.01461154 0.7031784 0.01461154 0.5146116 0.2031783 0.7031784 0.01461154 0.6166632 0.05044728 0.5146116 0.2031783 0.6166632 0.05044728 0.5504473 0.1166631 0.5146116 0.2031783 0.5146116 0.2031783 0.5146116 0.2968217 0.7031784 0.4853885 0.5146116 0.2968217 0.5504473 0.3833369 0.7031784 0.4853885 0.5504473 0.3833369 0.6166632 0.4495527 0.7031784 0.4853885 0.7031784 0.4853885 0.9853885 0.2968217 0.7968217 0.01461154 0.375 0 0.625 0 0.625 0.25 0.375 0.25 0.625 0.25 0.625 0.5 0.375 0.5 0.625 0.5 0.625 0.75 0.375 0.75 0.625 0.75 0.625 1 0.125 0.5 0.375 0.5 0.375 0.75 0.625 0.5 0.875 0.5 0.875 0.75</float_array>
          <technique_common>
            <accessor source="#Cylinder_010-mesh-map-0-array" count="408" stride="2">
              <param name="S" type="float"/>
              <param name="T" type="float"/>
            </accessor>
          </technique_common>
        </source>
        <vertices id="Cylinder_010-mesh-vertices">
          <input semantic="POSITION" source="#Cylinder_010-mesh-positions"/>
        </vertices>
        <triangles material="EJE-material" count="136">
          <input semantic="VERTEX" source="#Cylinder_010-mesh-vertices" offset="0"/>
          <input semantic="NORMAL" source="#Cylinder_010-mesh-normals" offset="1"/>
          <input semantic="TEXCOORD" source="#Cylinder_010-mesh-map-0" offset="2" set="0"/>
          <p>0 0 0 3 0 1 2 0 2 2 1 3 5 1 4 4 1 5 4 2 6 7 2 7 6 2 8 6 3 9 9 3 10 8 3 11 8 4 12 11 4 13 10 4 14 10 5 15 13 5 16 12 5 17 12 6 18 15 6 19 14 6 20 14 7 21 17 7 22 16 7 23 16 8 24 19 8 25 18 8 26 18 9 27 21 9 28 20 9 29 20 10 30 23 10 31 22 10 32 22 11 33 25 11 34 24 11 35 24 12 36 27 12 37 26 12 38 26 13 39 29 13 40 28 13 41 28 14 42 31 14 43 30 14 44 30 15 45 33 15 46 32 15 47 32 16 48 35 16 49 34 16 50 34 17 51 37 17 52 36 17 53 36 18 54 39 18 55 38 18 56 38 19 57 41 19 58 40 19 59 40 20 60 43 20 61 42 20 62 42 21 63 45 21 64 44 21 65 44 22 66 47 22 67 46 22 68 46 23 69 49 23 70 48 23 71 48 24 72 51 24 73 50 24 74 50 25 75 53 25 76 52 25 77 52 26 78 55 26 79 54 26 80 54 27 81 57 27 82 56 27 83 56 28 84 59 28 85 58 28 86 58 29 87 61 29 88 60 29 89 37 30 90 21 30 91 5 30 92 60 31 93 63 31 94 62 31 95 62 32 96 1 32 97 0 32 98 30 33 99 46 33 100 62 33 101 64 34 102 67 34 103 66 34 104 66 35 105 71 35 106 70 35 107 70 36 108 69 36 109 68 36 110 68 37 111 65 37 112 64 37 113 66 38 114 68 38 115 64 38 116 71 39 117 65 39 118 69 39 119 0 40 120 1 40 121 3 40 122 2 41 123 3 41 124 5 41 125 4 42 126 5 42 127 7 42 128 6 43 129 7 43 130 9 43 131 8 44 132 9 44 133 11 44 134 10 45 135 11 45 136 13 45 137 12 46 138 13 46 139 15 46 140 14 47 141 15 47 142 17 47 143 16 48 144 17 48 145 19 48 146 18 49 147 19 49 148 21 49 149 20 50 150 21 50 151 23 50 152 22 51 153 23 51 154 25 51 155 24 52 156 25 52 157 27 52 158 26 53 159 27 53 160 29 53 161 28 54 162 29 54 163 31 54 164 30 55 165 31 55 166 33 55 167 32 56 168 33 56 169 35 56 170 34 57 171 35 57 172 37 57 173 36 58 174 37 58 175 39 58 176 38 59 177 39 59 178 41 59 179 40 60 180 41 60 181 43 60 182 42 61 183 43 61 184 45 61 185 44 62 186 45 62 187 47 62 188 46 63 189 47 63 190 49 63 191 48 64 192 49 64 193 51 64 194 50 65 195 51 65 196 53 65 197 52 66 198 53 66 199 55 66 200 54 67 201 55 67 202 57 67 203 56 68 204 57 68 205 59 68 206 58 69 207 59 69 208 61 69 209 5 70 210 3 70 211 61 70 212 3 71 213 1 71 214 61 71 215 1 72 216 63 72 217 61 72 218 61 73 219 59 73 220 53 73 221 59 74 222 57 74 223 53 74 224 57 75 225 55 75 226 53 75 227 53 76 228 51 76 229 49 76 230 49 77 231 47 77 232 53 77 233 47 78 234 45 78 235 53 78 236 45 79 237 43 79 238 37 79 239 43 80 240 41 80 241 37 80 242 41 81 243 39 81 244 37 81 245 37 82 246 35 82 247 29 82 248 35 83 249 33 83 250 29 83 251 33 84 252 31 84 253 29 84 254 29 85 255 27 85 256 21 85 257 27 86 258 25 86 259 21 86 260 25 87 261 23 87 262 21 87 263 21 88 264 19 88 265 13 88 266 19 89 267 17 89 268 13 89 269 17 90 270 15 90 271 13 90 272 13 91 273 11 91 274 5 91 275 11 92 276 9 92 277 5 92 278 9 93 279 7 93 280 5 93 281 5 94 282 61 94 283 53 94 284 53 95 285 45 95 286 37 95 287 37 96 288 29 96 289 21 96 290 21 97 291 13 97 292 5 97 293 5 98 294 53 98 295 37 98 296 60 99 297 61 99 298 63 99 299 62 100 300 63 100 301 1 100 302 62 101 303 0 101 304 2 101 305 2 102 306 4 102 307 6 102 308 6 103 309 8 103 310 10 103 311 10 104 312 12 104 313 14 104 314 14 105 315 16 105 316 18 105 317 18 106 318 20 106 319 22 106 320 22 107 321 24 107 322 26 107 323 26 108 324 28 108 325 30 108 326 30 109 327 32 109 328 34 109 329 34 110 330 36 110 331 38 110 332 38 111 333 40 111 334 42 111 335 42 112 336 44 112 337 46 112 338 46 113 339 48 113 340 50 113 341 50 114 342 52 114 343 54 114 344 54 115 345 56 115 346 58 115 347 58 116 348 60 116 349 62 116 350 62 117 351 2 117 352 14 117 353 2 118 354 6 118 355 14 118 356 6 119 357 10 119 358 14 119 359 14 120 360 18 120 361 30 120 362 18 121 363 22 121 364 30 121 365 22 122 366 26 122 367 30 122 368 30 123 369 34 123 370 46 123 371 34 124 372 38 124 373 46 124 374 38 125 375 42 125 376 46 125 377 46 126 378 50 126 379 62 126 380 50 127 381 54 127 382 62 127 383 54 128 384 58 128 385 62 128 386 62 129 387 14 129 388 30 129 389 64 130 390 65 130 391 67 130 392 66 131 393 67 131 394 71 131 395 70 132 396 71 132 397 69 132 398 68 133 399 69 133 400 65 133 401 66 134 402 70 134 403 68 134 404 71 135 405 67 135 406 65 135 407</p>
        </triangles>
      </mesh>
    </geometry>
  </library_geometries>
  <library_visual_scenes>
    <visual_scene id="Scene" name="Scene">
      <node id="tmp_export_Cylinder_010" name="tmp_export_Cylinder.010" type="NODE">
        <matrix sid="transform">1 0 0 0 0 1 0 0 0 0 1 0 0 0 0 1</matrix>
        <instance_geometry url="#Cylinder_010-mesh" name="tmp_export_Cylinder.010">
          <bind_material>
            <technique_common>
              <instance_material symbol="EJE-material" target="#EJE-material">
                <bind_vertex_input semantic="UVMap" input_semantic="TEXCOORD" input_set="0"/>
              </instance_material>
            </technique_common>
          </bind_material>
        </instance_geometry>
      </node>
    </visual_scene>
  </library_visual_scenes>
  <scene>
    <instance_visual_scene url="#Scene"/>
  </scene>
</COLLADA>