<?xml version="1.0" encoding="utf-8"?>
<COLLADA xmlns="http://www.collada.org/2005/11/COLLADASchema" version="1.4.1" xmlns:xsi="http://www.w3.org/2001/XMLSchema-instance">
  <asset>
    <contributor>
      <author>Blender User</author>
      <authoring_tool>Blender 4.2.18 LTS commit date:2026-02-16, commit time:13:37, hash:d71e3422e438</authoring_tool>
    </contributor>
    <created>2026-05-01T23:19:05</created>
    <modified>2026-05-01T23:19:05</modified>
    <unit name="meter" meter="1"/>
    <up_axis>Z_UP</up_axis>
  </asset>
  <library_effects>
    <effect id="RAIL-effect">
      <profile_COMMON>
        <technique sid="common">
          <lambert>
            <emission>
              <color sid="emission">0 0 0 1</color>
            </emission>
            <diffuse>
              <color sid="diffuse">0.2826608 0.2826608 0.2826608 1</color>
            </diffuse>
            <index_of_refraction>
              <float sid="ior">1.5</float>
            </index_of_refraction>
          </lambert>
        </technique>
      </profile_COMMON>
    </effect>
  </library_effects>
  <library_images/>
  <library_materials>
    <material id="RAIL-material" name="RAIL">
      <instance_effect url="#RAIL-effect"/>
    </material>
  </library_materials>
  <library_geometries>
    <geometry id="Cylinder_019-mesh" name="Cylinder.019">
      <mesh>
        <source id="Cylinder_019-mesh-positions">
          <float_array id="Cylinder_019-mesh-positions-array" count="384">-0.75 0.175 -0.175 -0.7158592 0.1716374 -0.175 -0.7158592 0.1716374 0.175 -0.6830304 0.1616789 -0.175 -0.6830304 0.1616789 0.175 -0.6527752 0.1455072 -0.175 -0.6527752 0.1455072 0.175 -0.6262564 0.1237437 -0.175 -0.6262564 0.1237437 0.175 -0.6044929 0.09722477 -0.175 -0.6044929 0.09722477 0.175 -0.5883211 0.06696957 -0.175 -0.5883211 0.06696957 0.175 -0.5783626 0.03414076 -0.175 -0.5783626 0.03414076 0.175 -0.575 0 -0.175 -0.575 0 0.175 -0.5783626 -0.03414076 -0.175 -0.5783626 -0.03414076 0.175 -0.5883211 -0.06696957 -0.175 -0.5883211 -0.06696957 0.175 -0.6044929 -0.09722477 -0.175 -0.6044929 -0.09722477 0.175 -0.6262564 -0.1237437 -0.175 -0.6262564 -0.1237437 0.175 -0.6527752 -0.1455072 -0.175 -0.6527752 -0.1455072 0.175 -0.6830304 -0.1616789 -0.175 -0.6830304 -0.1616789 0.175 -0.7158592 -0.1716374 -0.175 -0.7158592 -0.1716374 0.175 -0.75 -0.175 -0.175 -0.75 -0.175 0.175 -0.7841408 -0.1716374 -0.175 -0.7841408 -0.1716374 0.175 -0.8169696 -0.1616789 -0.175 -0.8169696 -0.1616789 0.175 -0.8472248 -0.1455072 -0.175 -0.8472248 -0.1455072 0.175 -0.8737437 -0.1237437 -0.175 -0.8737437 -0.1237437 0.175 -0.8955072 -0.09722477 -0.175 -0.8955072 -0.09722477 0.175 -0.9116789 -0.06696957 -0.175 -0.9116789 -0.06696957 0.175 -0.9216374 -0.03414076 -0.175 -0.9216374 -0.03414076 0.175 -0.925 0 -0.175 -0.925 0 0.175 -0.9216374 0.03414076 -0.175 -0.9216374 0.03414076 0.175 -0.9116789 0.06696957 -0.175 -0.9116789 0.06696957 0.175 -0.8955072 0.09722477 -0.175 -0.8955072 0.09722477 0.175 -0.8737437 0.1237437 -0.175 -0.8737437 0.1237437 0.175 -0.8472248 0.1455072 -0.175 -0.8472248 0.1455072 0.175 -0.8169696 0.1616789 -0.175 -0.8169696 0.1616789 0.175 -0.7841408 0.1716374 -0.175 -0.7841408 0.1716374 0.175 0.7499999 0.175 -0.175 0.7841407 0.1716374 -0.175 0.7841407 0.1716374 0.175 0.8169696 0.1616789 -0.175 0.8169696 0.1616789 0.175 0.8472248 0.1455072 -0.175 0.8472248 0.1455072 0.175 0.8737435 0.1237437 -0.175 0.8737435 0.1237437 0.175 0.8955071 0.09722477 -0.175 0.8955071 0.09722477 0.175 0.9116789 0.06696957 -0.175 0.9116789 0.06696957 0.175 0.9216374 0.03414076 -0.175 0.9216374 0.03414076 0.175 0.925 0 -0.175 0.925 0 0.175 0.9216374 -0.03414076 -0.175 0.9216374 -0.03414076 0.175 0.9116789 -0.06696957 -0.175 0.9116789 -0.06696957 0.175 0.8955071 -0.09722477 -0.175 0.8955071 -0.09722477 0.175 0.8737435 -0.1237437 -0.175 0.8737435 -0.1237437 0.175 0.8472248 -0.1455072 -0.175 0.8472248 -0.1455072 0.175 0.8169696 -0.1616789 -0.175 0.8169696 -0.1616789 0.175 0.7841407 -0.1716374 -0.175 0.7841407 -0.1716374 0.175 0.7499999 -0.175 -0.175 0.7158592 -0.1716374 -0.175 0.7158592 -0.1716374 0.175 0.6830303 -0.1616789 -0.175 0.6830303 -0.1616789 0.175 0.6527751 -0.1455072 -0.175 0.6527751 -0.1455072 0.175 0.6262562 -0.1237437 -0.175 0.6262562 -0.1237437 0.175 0.6044928 -0.09722477 -0.175 0.6044928 -0.09722477 0.175 0.588321 -0.06696957 -0.175 0.588321 -0.06696957 0.175 0.5783625 -0.03414076 -0.175 0.5783625 -0.03414076 0.175 0.5749999 0 -0.175 0.5749999 0 0.175 0.5783625 0.03414076 -0.175 0.5783625 0.03414076 0.175 0.588321 0.06696957 -0.175 0.588321 0.06696957 0.175 0.6044928 0.09722477 -0.175 0.6044928 0.09722477 0.175 0.6262562 0.1237437 -0.175 0.6262562 0.1237437 0.175 0.6527751 0.1455072 -0.175 0.6527751 0.1455072 0.175 0.6830303 0.1616789 -0.175 0.6830303 0.1616789 0.175 0.7158592 0.1716374 -0.175 0.7158592 0.1716374 0.175 -0.75 0.175 0.175 0.7499999 -0.175 0.175 0.7499999 0.175 0.175</float_array>
          <technique_common>
            <accessor source="#Cylinder_019-mesh-positions-array" count="128" stride="3">
              <param name="X" type="float"/>
              <param name="Y" type="float"/>
              <param name="Z" type="float"/>
            </accessor>
          </technique_common>
        </source>
        <source id="Cylinder_019-mesh-normals">
          <float_array id="Cylinder_019-mesh-normals-array" count="780">0.09801721 0.9951847 0 0.2902846 0.9569404 0 0.4713973 0.8819209 0 0.6343933 0.7730104 0 0.7730102 0.6343935 0 0.8819211 0.4713971 0 0.9569404 0.2902846 0 0.9951847 0.09801769 0 0.9951847 -0.09801769 0 0.9569404 -0.2902846 0 0.8819211 -0.4713971 0 0.7730102 -0.6343935 0 0.6343933 -0.7730104 0 0.4713973 -0.8819209 0 0.2902846 -0.9569404 0 0.09801721 -0.9951847 0 -0.09801721 -0.9951847 0 -0.2902846 -0.9569404 0 -0.4713973 -0.8819209 0 -0.6343933 -0.7730104 0 -0.7730102 -0.6343935 0 -0.8819211 -0.4713971 0 -0.9569404 -0.2902846 0 -0.9951847 -0.09801769 0 -0.9951847 0.09801769 0 -0.9569404 0.2902846 0 -0.8819211 0.4713971 0 -0.7730102 0.6343935 0 -0.6343933 0.7730104 0 -0.4713973 0.8819209 0 0 0 1 -0.2902846 0.9569404 0 -0.09801721 0.9951847 0 0 0 -1 0.09801721 0.9951847 0 0.2902836 0.9569407 0 0.4713967 0.8819213 0 0.6343959 0.7730083 0 0.7730094 0.6343945 0 0.8819203 0.4713984 0 0.9569404 0.2902846 0 0.9951848 0.09801596 0 0.9951848 -0.09801596 0 0.9569404 -0.2902846 0 0.8819203 -0.4713984 0 0.7730094 -0.6343945 0 0.6343959 -0.7730083 0 0.4713967 -0.8819213 0 0.2902836 -0.9569407 0 0.09801721 -0.9951847 0 -0.09801757 -0.9951847 0 -0.2902836 -0.9569407 0 -0.4713967 -0.8819213 0 -0.6343942 -0.7730097 0 -0.7730111 -0.6343925 0 -0.8819203 -0.4713984 0 -0.9569404 -0.2902846 0 -0.9951848 -0.09801596 0 -0.9951848 0.09801596 0 -0.9569404 0.2902846 0 -0.8819203 0.4713984 0 -0.7730111 0.6343925 0 -0.6343942 0.7730097 0 -0.4713967 0.8819213 0 0 0 1 -0.2902836 0.9569407 0 -0.09801757 0.9951847 0 0 0 -1 -1 0 0 0 1 0 1 0 0 0 -1 0 0 0 -1 0 0 1 0.09801721 0.9951847 0 0.2902846 0.9569404 0 0.4713973 0.8819209 0 0.6343933 0.7730104 0 0.7730102 0.6343935 0 0.8819211 0.4713971 0 0.9569404 0.2902846 0 0.9951847 0.09801769 0 0.9951847 -0.09801769 0 0.9569404 -0.2902846 0 0.8819211 -0.4713971 0 0.7730102 -0.6343935 0 0.6343933 -0.7730104 0 0.4713973 -0.8819209 0 0.2902846 -0.9569404 0 0.09801721 -0.9951847 0 -0.09801721 -0.9951847 0 -0.2902846 -0.9569404 0 -0.4713973 -0.8819209 0 -0.6343933 -0.7730104 0 -0.7730102 -0.6343935 0 -0.8819211 -0.4713971 0 -0.9569404 -0.2902846 0 -0.9951847 -0.09801769 0 -0.9951847 0.09801769 0 -0.9569404 0.2902846 0 -0.8819211 0.4713971 0 -0.7730102 0.6343935 0 -0.6343933 0.7730104 0 -0.4713973 0.8819209 0 0 0 1 0 0 1 0 0 1 0 0 1 0 0 1 0 0 1 0 0 1 0 0 1 0 0 1 0 0 1 0 0 1 0 0 1 0 0 1 0 0 1 0 0 1 0 0 1 0 0 1 0 0 1 0 0 1 0 0 1 0 0 1 0 0 1 0 0 1 0 0 1 0 0 1 0 0 1 0 0 1 0 0 1 0 0 1 -0.2902846 0.9569404 0 -0.09801721 0.9951847 0 0 0 -1 0 0 -1 0 0 -1 0 0 -1 0 0 -1 0 0 -1 0 0 -1 0 0 -1 0 0 -1 0 0 -1 0 0 -1 0 0 -1 0 0 -1 0 0 -1 0 0 -1 0 0 -1 0 0 -1 0 0 -1 0 0 -1 0 0 -1 0 0 -1 0 0 -1 0 0 -1 0 0 -1 0 0 -1 0 0 -1 0 0 -1 0 0 -1 0 0 -1 0.09801721 0.9951847 0 0.2902836 0.9569407 0 0.4713967 0.8819213 0 0.6343959 0.7730083 0 0.7730094 0.6343945 0 0.8819203 0.4713984 0 0.9569404 0.2902846 0 0.9951848 0.09801596 0 0.9951848 -0.09801596 0 0.9569404 -0.2902846 0 0.8819203 -0.4713984 0 0.7730094 -0.6343945 0 0.6343959 -0.7730083 0 0.4713967 -0.8819213 0 0.2902836 -0.9569407 0 0.09801721 -0.9951847 0 -0.09801757 -0.9951847 0 -0.2902836 -0.9569407 0 -0.4713967 -0.8819213 0 -0.6343942 -0.7730097 0 -0.7730111 -0.6343925 0 -0.8819203 -0.4713984 0 -0.9569404 -0.2902846 0 -0.9951848 -0.09801596 0 -0.9951848 0.09801596 0 -0.9569404 0.2902846 0 -0.8819203 0.4713984 0 -0.7730111 0.6343925 0 -0.6343942 0.7730097 0 -0.4713967 0.8819213 0 0 0 1 0 0 1 0 0 1 0 0 1 0 0 1 0 0 1 0 0 1 0 0 1 0 0 1 0 0 1 0 0 1 0 0 1 0 0 1 0 0 1 0 0 1 0 0 1 0 0 1 0 0 1 0 0 1 0 0 1 0 0 1 0 0 1 0 0 1 0 0 1 0 0 1 0 0 1 0 0 1 0 0 1 0 0 1 -0.2902836 0.9569407 0 -0.09801757 0.9951847 0 0 0 -1 0 0 -1 0 0 -1 0 0 -1 0 0 -1 0 0 -1 0 0 -1 0 0 -1 0 0 -1 0 0 -1 0 0 -1 0 0 -1 0 0 -1 0 0 -1 0 0 -1 0 0 -1 0 0 -1 0 0 -1 0 0 -1 0 0 -1 0 0 -1 0 0 -1 0 0 -1 0 0 -1 0 0 -1 0 0 -1 0 0 -1 0 0 -1 0 0 -1 -1 0 0 0 1 0 1 0 0 0 -1 0 0 0 -1 0 0 1</float_array>
          <technique_common>
            <accessor source="#Cylinder_019-mesh-normals-array" count="260" stride="3">
              <param name="X" type="float"/>
              <param name="Y" type="float"/>
              <param name="Z" type="float"/>
            </accessor>
          </technique_common>
        </source>
        <source id="Cylinder_019-mesh-map-0">
          <float_array id="Cylinder_019-mesh-map-0-array" count="1560">1 0.5 0.96875 1 0.96875 0.5 0.96875 0.5 0.9375 1 0.9375 0.5 0.9375 0.5 0.90625 1 0.90625 0.5 0.90625 0.5 0.875 1 0.875 0.5 0.875 0.5 0.84375 1 0.84375 0.5 0.84375 0.5 0.8125 1 0.8125 0.5 0.8125 0.5 0.78125 1 0.78125 0.5 0.78125 0.5 0.75 1 0.75 0.5 0.75 0.5 0.71875 1 0.71875 0.5 0.71875 0.5 0.6875 1 0.6875 0.5 0.6875 0.5 0.65625 1 0.65625 0.5 0.65625 0.5 0.625 1 0.625 0.5 0.625 0.5 0.59375 1 0.59375 0.5 0.59375 0.5 0.5625 1 0.5625 0.5 0.5625 0.5 0.53125 1 0.53125 0.5 0.53125 0.5 0.5 1 0.5 0.5 0.5 0.5 0.46875 1 0.46875 0.5 0.46875 0.5 0.4375 1 0.4375 0.5 0.4375 0.5 0.40625 1 0.40625 0.5 0.40625 0.5 0.375 1 0.375 0.5 0.375 0.5 0.34375 1 0.34375 0.5 0.34375 0.5 0.3125 1 0.3125 0.5 0.3125 0.5 0.28125 1 0.28125 0.5 0.28125 0.5 0.25 1 0.25 0.5 0.25 0.5 0.21875 1 0.21875 0.5 0.21875 0.5 0.1875 1 0.1875 0.5 0.1875 0.5 0.15625 1 0.15625 0.5 0.15625 0.5 0.125 1 0.125 0.5 0.125 0.5 0.09375 1 0.09375 0.5 0.09375 0.5 0.0625 1 0.0625 0.5 0.02826887 0.341844 0.1581559 0.02826887 0.4717311 0.1581559 0.0625 0.5 0.03125 1 0.03125 0.5 0.03125 0.5 0 1 0 0.5 0.5504473 0.3833369 0.7031784 0.4853885 0.7968217 0.01461154 1 0.5 0.96875 1 0.96875 0.5 0.96875 0.5 0.9375 1 0.9375 0.5 0.9375 0.5 0.90625 1 0.90625 0.5 0.90625 0.5 0.875 1 0.875 0.5 0.875 0.5 0.84375 1 0.84375 0.5 0.84375 0.5 0.8125 1 0.8125 0.5 0.8125 0.5 0.78125 1 0.78125 0.5 0.78125 0.5 0.75 1 0.75 0.5 0.75 0.5 0.71875 1 0.71875 0.5 0.71875 0.5 0.6875 1 0.6875 0.5 0.6875 0.5 0.65625 1 0.65625 0.5 0.65625 0.5 0.625 1 0.625 0.5 0.625 0.5 0.59375 1 0.59375 0.5 0.59375 0.5 0.5625 1 0.5625 0.5 0.5625 0.5 0.53125 1 0.53125 0.5 0.53125 0.5 0.5 1 0.5 0.5 0.5 0.5 0.46875 1 0.46875 0.5 0.46875 0.5 0.4375 1 0.4375 0.5 0.4375 0.5 0.40625 1 0.40625 0.5 0.40625 0.5 0.375 1 0.375 0.5 0.375 0.5 0.34375 1 0.34375 0.5 0.34375 0.5 0.3125 1 0.3125 0.5 0.3125 0.5 0.28125 1 0.28125 0.5 0.28125 0.5 0.25 1 0.25 0.5 0.25 0.5 0.21875 1 0.21875 0.5 0.21875 0.5 0.1875 1 0.1875 0.5 0.1875 0.5 0.15625 1 0.15625 0.5 0.15625 0.5 0.125 1 0.125 0.5 0.125 0.5 0.09375 1 0.09375 0.5 0.09375 0.5 0.0625 1 0.0625 0.5 0.1581559 0.02826887 0.4717311 0.1581559 0.341844 0.4717311 0.0625 0.5 0.03125 1 0.03125 0.5 0.03125 0.5 0 1 0 0.5 0.5504473 0.3833369 0.7031784 0.4853885 0.7968217 0.01461154 0.375 0 0.625 0.25 0.375 0.25 0.375 0.25 0.625 0.5 0.375 0.5 0.375 0.5 0.625 0.75 0.375 0.75 0.375 0.75 0.625 1 0.375 1 0.125 0.5 0.375 0.75 0.125 0.75 0.625 0.5 0.875 0.75 0.625 0.75 1 0.5 1 1 0.96875 1 0.96875 0.5 0.96875 1 0.9375 1 0.9375 0.5 0.9375 1 0.90625 1 0.90625 0.5 0.90625 1 0.875 1 0.875 0.5 0.875 1 0.84375 1 0.84375 0.5 0.84375 1 0.8125 1 0.8125 0.5 0.8125 1 0.78125 1 0.78125 0.5 0.78125 1 0.75 1 0.75 0.5 0.75 1 0.71875 1 0.71875 0.5 0.71875 1 0.6875 1 0.6875 0.5 0.6875 1 0.65625 1 0.65625 0.5 0.65625 1 0.625 1 0.625 0.5 0.625 1 0.59375 1 0.59375 0.5 0.59375 1 0.5625 1 0.5625 0.5 0.5625 1 0.53125 1 0.53125 0.5 0.53125 1 0.5 1 0.5 0.5 0.5 1 0.46875 1 0.46875 0.5 0.46875 1 0.4375 1 0.4375 0.5 0.4375 1 0.40625 1 0.40625 0.5 0.40625 1 0.375 1 0.375 0.5 0.375 1 0.34375 1 0.34375 0.5 0.34375 1 0.3125 1 0.3125 0.5 0.3125 1 0.28125 1 0.28125 0.5 0.28125 1 0.25 1 0.25 0.5 0.25 1 0.21875 1 0.21875 0.5 0.21875 1 0.1875 1 0.1875 0.5 0.1875 1 0.15625 1 0.15625 0.5 0.15625 1 0.125 1 0.125 0.5 0.125 1 0.09375 1 0.09375 0.5 0.09375 1 0.0625 1 0.341844 0.4717311 0.2968217 0.4853885 0.25 0.49 0.25 0.49 0.2031783 0.4853885 0.341844 0.4717311 0.2031783 0.4853885 0.1581559 0.4717311 0.341844 0.4717311 0.1581559 0.4717311 0.1166631 0.4495527 0.08029437 0.4197056 0.08029437 0.4197056 0.05044728 0.3833369 0.02826887 0.341844 0.02826887 0.341844 0.01461154 0.2968217 0.00999999 0.25 0.00999999 0.25 0.01461154 0.2031783 0.02826887 0.341844 0.01461154 0.2031783 0.02826887 0.1581559 0.02826887 0.341844 0.02826887 0.1581559 0.05044728 0.1166631 0.08029437 0.08029437 0.08029437 0.08029437 0.1166631 0.05044728 0.1581559 0.02826887 0.1581559 0.02826887 0.2031783 0.01461154 0.25 0.00999999 0.25 0.00999999 0.2968217 0.01461154 0.1581559 0.02826887 0.2968217 0.01461154 0.341844 0.02826887 0.1581559 0.02826887 0.341844 0.02826887 0.3833369 0.05044728 0.4197056 0.08029437 0.4197056 0.08029437 0.4495527 0.1166631 0.4717311 0.1581559 0.4717311 0.1581559 0.4853885 0.2031783 0.49 0.25 0.49 0.25 0.4853885 0.2968217 0.4717311 0.1581559 0.4853885 0.2968217 0.4717311 0.341844 0.4717311 0.1581559 0.4717311 0.341844 0.4495527 0.3833369 0.4197056 0.4197056 0.4197056 0.4197056 0.3833369 0.4495527 0.341844 0.4717311 0.1581559 0.4717311 0.08029437 0.4197056 0.341844 0.4717311 0.08029437 0.4197056 0.02826887 0.341844 0.341844 0.4717311 0.02826887 0.1581559 0.08029437 0.08029437 0.02826887 0.341844 0.08029437 0.08029437 0.1581559 0.02826887 0.02826887 0.341844 0.341844 0.02826887 0.4197056 0.08029437 0.1581559 0.02826887 0.4197056 0.08029437 0.4717311 0.1581559 0.1581559 0.02826887 0.4717311 0.341844 0.4197056 0.4197056 0.4717311 0.1581559 0.4197056 0.4197056 0.341844 0.4717311 0.4717311 0.1581559 0.341844 0.4717311 0.02826887 0.341844 0.4717311 0.1581559 0.0625 0.5 0.0625 1 0.03125 1 0.03125 0.5 0.03125 1 0 1 0.7031784 0.4853885 0.75 0.49 0.8833369 0.4495527 0.75 0.49 0.7968217 0.4853885 0.8833369 0.4495527 0.7968217 0.4853885 0.841844 0.4717311 0.8833369 0.4495527 0.8833369 0.4495527 0.9197056 0.4197056 0.9853885 0.2968217 0.9197056 0.4197056 0.9495527 0.3833369 0.9853885 0.2968217 0.9495527 0.3833369 0.9717311 0.341844 0.9853885 0.2968217 0.9853885 0.2968217 0.99 0.25 0.9853885 0.2031783 0.9853885 0.2031783 0.9717311 0.1581559 0.9495527 0.1166631 0.9495527 0.1166631 0.9197056 0.08029437 0.8833369 0.05044728 0.8833369 0.05044728 0.841844 0.02826887 0.7968217 0.01461154 0.7968217 0.01461154 0.75 0.00999999 0.6166632 0.05044728 0.75 0.00999999 0.7031784 0.01461154 0.6166632 0.05044728 0.7031784 0.01461154 0.658156 0.02826887 0.6166632 0.05044728 0.6166632 0.05044728 0.5802944 0.08029437 0.5146116 0.2031783 0.5802944 0.08029437 0.5504473 0.1166631 0.5146116 0.2031783 0.5504473 0.1166631 0.5282689 0.1581559 0.5146116 0.2031783 0.5146116 0.2031783 0.51 0.25 0.5146116 0.2968217 0.5146116 0.2968217 0.5282689 0.341844 0.5504473 0.3833369 0.5504473 0.3833369 0.5802944 0.4197056 0.7031784 0.4853885 0.5802944 0.4197056 0.6166632 0.4495527 0.7031784 0.4853885 0.6166632 0.4495527 0.658156 0.4717311 0.7031784 0.4853885 0.9853885 0.2968217 0.9853885 0.2031783 0.9495527 0.1166631 0.9495527 0.1166631 0.8833369 0.05044728 0.9853885 0.2968217 0.8833369 0.05044728 0.7968217 0.01461154 0.9853885 0.2968217 0.5146116 0.2031783 0.5146116 0.2968217 0.5504473 0.3833369 0.7031784 0.4853885 0.8833369 0.4495527 0.7968217 0.01461154 0.8833369 0.4495527 0.9853885 0.2968217 0.7968217 0.01461154 0.7968217 0.01461154 0.6166632 0.05044728 0.5146116 0.2031783 0.5146116 0.2031783 0.5504473 0.3833369 0.7968217 0.01461154 1 0.5 1 1 0.96875 1 0.96875 0.5 0.96875 1 0.9375 1 0.9375 0.5 0.9375 1 0.90625 1 0.90625 0.5 0.90625 1 0.875 1 0.875 0.5 0.875 1 0.84375 1 0.84375 0.5 0.84375 1 0.8125 1 0.8125 0.5 0.8125 1 0.78125 1 0.78125 0.5 0.78125 1 0.75 1 0.75 0.5 0.75 1 0.71875 1 0.71875 0.5 0.71875 1 0.6875 1 0.6875 0.5 0.6875 1 0.65625 1 0.65625 0.5 0.65625 1 0.625 1 0.625 0.5 0.625 1 0.59375 1 0.59375 0.5 0.59375 1 0.5625 1 0.5625 0.5 0.5625 1 0.53125 1 0.53125 0.5 0.53125 1 0.5 1 0.5 0.5 0.5 1 0.46875 1 0.46875 0.5 0.46875 1 0.4375 1 0.4375 0.5 0.4375 1 0.40625 1 0.40625 0.5 0.40625 1 0.375 1 0.375 0.5 0.375 1 0.34375 1 0.34375 0.5 0.34375 1 0.3125 1 0.3125 0.5 0.3125 1 0.28125 1 0.28125 0.5 0.28125 1 0.25 1 0.25 0.5 0.25 1 0.21875 1 0.21875 0.5 0.21875 1 0.1875 1 0.1875 0.5 0.1875 1 0.15625 1 0.15625 0.5 0.15625 1 0.125 1 0.125 0.5 0.125 1 0.09375 1 0.09375 0.5 0.09375 1 0.0625 1 0.341844 0.4717311 0.2968217 0.4853885 0.25 0.49 0.25 0.49 0.2031783 0.4853885 0.1581559 0.4717311 0.1581559 0.4717311 0.1166631 0.4495527 0.08029437 0.4197056 0.08029437 0.4197056 0.05044728 0.3833369 0.1581559 0.4717311 0.05044728 0.3833369 0.02826887 0.341844 0.1581559 0.4717311 0.02826887 0.341844 0.01461154 0.2968217 0.00999999 0.25 0.00999999 0.25 0.01461154 0.2031783 0.02826887 0.1581559 0.02826887 0.1581559 0.05044728 0.1166631 0.1581559 0.02826887 0.05044728 0.1166631 0.08029437 0.08029437 0.1581559 0.02826887 0.08029437 0.08029437 0.1166631 0.05044728 0.1581559 0.02826887 0.1581559 0.02826887 0.2031783 0.01461154 0.25 0.00999999 0.25 0.00999999 0.2968217 0.01461154 0.1581559 0.02826887 0.2968217 0.01461154 0.341844 0.02826887 0.1581559 0.02826887 0.341844 0.02826887 0.3833369 0.05044728 0.4197056 0.08029437 0.4197056 0.08029437 0.4495527 0.1166631 0.4717311 0.1581559 0.4717311 0.1581559 0.4853885 0.2031783 0.49 0.25 0.49 0.25 0.4853885 0.2968217 0.4717311 0.341844 0.4717311 0.341844 0.4495527 0.3833369 0.4197056 0.4197056 0.4197056 0.4197056 0.3833369 0.4495527 0.341844 0.4717311 0.341844 0.4717311 0.25 0.49 0.02826887 0.341844 0.25 0.49 0.1581559 0.4717311 0.02826887 0.341844 0.02826887 0.341844 0.00999999 0.25 0.1581559 0.02826887 0.00999999 0.25 0.02826887 0.1581559 0.1581559 0.02826887 0.341844 0.02826887 0.4197056 0.08029437 0.1581559 0.02826887 0.4197056 0.08029437 0.4717311 0.1581559 0.1581559 0.02826887 0.4717311 0.1581559 0.49 0.25 0.4717311 0.341844 0.4717311 0.341844 0.4197056 0.4197056 0.4717311 0.1581559 0.4197056 0.4197056 0.341844 0.4717311 0.4717311 0.1581559 0.341844 0.4717311 0.02826887 0.341844 0.1581559 0.02826887 0.0625 0.5 0.0625 1 0.03125 1 0.03125 0.5 0.03125 1 0 1 0.7031784 0.4853885 0.75 0.49 0.7968217 0.4853885 0.7968217 0.4853885 0.841844 0.4717311 0.8833369 0.4495527 0.8833369 0.4495527 0.9197056 0.4197056 0.9495527 0.3833369 0.9495527 0.3833369 0.9717311 0.341844 0.9853885 0.2968217 0.9853885 0.2968217 0.99 0.25 0.9495527 0.1166631 0.99 0.25 0.9853885 0.2031783 0.9495527 0.1166631 0.9853885 0.2031783 0.9717311 0.1581559 0.9495527 0.1166631 0.9495527 0.1166631 0.9197056 0.08029437 0.7968217 0.01461154 0.9197056 0.08029437 0.8833369 0.05044728 0.7968217 0.01461154 0.8833369 0.05044728 0.841844 0.02826887 0.7968217 0.01461154 0.7968217 0.01461154 0.75 0.00999999 0.7031784 0.01461154 0.7031784 0.01461154 0.658156 0.02826887 0.6166632 0.05044728 0.6166632 0.05044728 0.5802944 0.08029437 0.5504473 0.1166631 0.5504473 0.1166631 0.5282689 0.1581559 0.5146116 0.2031783 0.5146116 0.2031783 0.51 0.25 0.5504473 0.3833369 0.51 0.25 0.5146116 0.2968217 0.5504473 0.3833369 0.5146116 0.2968217 0.5282689 0.341844 0.5504473 0.3833369 0.5504473 0.3833369 0.5802944 0.4197056 0.7031784 0.4853885 0.5802944 0.4197056 0.6166632 0.4495527 0.7031784 0.4853885 0.6166632 0.4495527 0.658156 0.4717311 0.7031784 0.4853885 0.7031784 0.4853885 0.7968217 0.4853885 0.8833369 0.4495527 0.8833369 0.4495527 0.9495527 0.3833369 0.7031784 0.4853885 0.9495527 0.3833369 0.9853885 0.2968217 0.7031784 0.4853885 0.7968217 0.01461154 0.7031784 0.01461154 0.6166632 0.05044728 0.6166632 0.05044728 0.5504473 0.1166631 0.7968217 0.01461154 0.5504473 0.1166631 0.5146116 0.2031783 0.7968217 0.01461154 0.9853885 0.2968217 0.9495527 0.1166631 0.7031784 0.4853885 0.9495527 0.1166631 0.7968217 0.01461154 0.7031784 0.4853885 0.5146116 0.2031783 0.5504473 0.3833369 0.7968217 0.01461154 0.375 0 0.625 0 0.625 0.25 0.375 0.25 0.625 0.25 0.625 0.5 0.375 0.5 0.625 0.5 0.625 0.75 0.375 0.75 0.625 0.75 0.625 1 0.125 0.5 0.375 0.5 0.375 0.75 0.625 0.5 0.875 0.5 0.875 0.75</float_array>
          <technique_common>
            <accessor source="#Cylinder_019-mesh-map-0-array" count="780" stride="2">
              <param name="S" type="float"/>
              <param name="T" type="float"/>
            </accessor>
          </technique_common>
        </source>
        <vertices id="Cylinder_019-mesh-vertices">
          <input semantic="POSITION" source="#Cylinder_019-mesh-positions"/>
        </vertices>
        <triangles material="RAIL-material" count="260">
          <input semantic="VERTEX" source="#Cylinder_019-mesh-vertices" offset="0"/>
          <input semantic="NORMAL" source="#Cylinder_019-mesh-normals" offset="1"/>
          <input semantic="TEXCOORD" source="#Cylinder_019-mesh-map-0" offset="2" set="0"/>
          <p>0 0 0 2 0 1 1 0 2 1 1 3 4 1 4 3 1 5 3 2 6 6 2 7 5 2 8 5 3 9 8 3 10 7 3 11 7 4 12 10 4 13 9 4 14 9 5 15 12 5 16 11 5 17 11 6 18 14 6 19 13 6 20 13 7 21 16 7 22 15 7 23 15 8 24 18 8 25 17 8 26 17 9 27 20 9 28 19 9 29 19 10 30 22 10 31 21 10 32 21 11 33 24 11 34 23 11 35 23 12 36 26 12 37 25 12 38 25 13 39 28 13 40 27 13 41 27 14 42 30 14 43 29 14 44 29 15 45 32 15 46 31 15 47 31 16 48 34 16 49 33 16 50 33 17 51 36 17 52 35 17 53 35 18 54 38 18 55 37 18 56 37 19 57 40 19 58 39 19 59 39 20 60 42 20 61 41 20 62 41 21 63 44 21 64 43 21 65 43 22 66 46 22 67 45 22 68 45 23 69 48 23 70 47 23 71 47 24 72 50 24 73 49 24 74 49 25 75 52 25 76 51 25 77 51 26 78 54 26 79 53 26 80 53 27 81 56 27 82 55 27 83 55 28 84 58 28 85 57 28 86 57 29 87 60 29 88 59 29 89 52 30 90 36 30 91 20 30 92 59 31 93 62 31 94 61 31 95 61 32 96 125 32 97 0 32 98 53 33 99 61 33 100 29 33 101 63 34 102 65 34 103 64 34 104 64 35 105 67 35 106 66 35 107 66 36 108 69 36 109 68 36 110 68 37 111 71 37 112 70 37 113 70 38 114 73 38 115 72 38 116 72 39 117 75 39 118 74 39 119 74 40 120 77 40 121 76 40 122 76 41 123 79 41 124 78 41 125 78 42 126 81 42 127 80 42 128 80 43 129 83 43 130 82 43 131 82 44 132 85 44 133 84 44 134 84 45 135 87 45 136 86 45 137 86 46 138 89 46 139 88 46 140 88 47 141 91 47 142 90 47 143 90 48 144 93 48 145 92 48 146 92 49 147 126 49 148 94 49 149 94 50 150 96 50 151 95 50 152 95 51 153 98 51 154 97 51 155 97 52 156 100 52 157 99 52 158 99 53 159 102 53 160 101 53 161 101 54 162 104 54 163 103 54 164 103 55 165 106 55 166 105 55 167 105 56 168 108 56 169 107 56 170 107 57 171 110 57 172 109 57 173 109 58 174 112 58 175 111 58 176 111 59 177 114 59 178 113 59 179 113 60 180 116 60 181 115 60 182 115 61 183 118 61 184 117 61 185 117 62 186 120 62 187 119 62 188 119 63 189 122 63 190 121 63 191 98 64 192 83 64 193 67 64 194 121 65 195 124 65 196 123 65 197 123 66 198 127 66 199 63 66 200 115 67 201 123 67 202 92 67 203 31 68 204 125 68 205 0 68 206 0 69 207 127 69 208 63 69 209 63 70 210 126 70 211 94 70 212 94 71 213 32 71 214 31 71 215 0 72 216 94 72 217 31 72 218 127 73 219 32 73 220 126 73 221 0 74 222 125 74 223 2 74 224 1 75 225 2 75 226 4 75 227 3 76 228 4 76 229 6 76 230 5 77 231 6 77 232 8 77 233 7 78 234 8 78 235 10 78 236 9 79 237 10 79 238 12 79 239 11 80 240 12 80 241 14 80 242 13 81 243 14 81 244 16 81 245 15 82 246 16 82 247 18 82 248 17 83 249 18 83 250 20 83 251 19 84 252 20 84 253 22 84 254 21 85 255 22 85 256 24 85 257 23 86 258 24 86 259 26 86 260 25 87 261 26 87 262 28 87 263 27 88 264 28 88 265 30 88 266 29 89 267 30 89 268 32 89 269 31 90 270 32 90 271 34 90 272 33 91 273 34 91 274 36 91 275 35 92 276 36 92 277 38 92 278 37 93 279 38 93 280 40 93 281 39 94 282 40 94 283 42 94 284 41 95 285 42 95 286 44 95 287 43 96 288 44 96 289 46 96 290 45 97 291 46 97 292 48 97 293 47 98 294 48 98 295 50 98 296 49 99 297 50 99 298 52 99 299 51 100 300 52 100 301 54 100 302 53 101 303 54 101 304 56 101 305 55 102 306 56 102 307 58 102 308 57 103 309 58 103 310 60 103 311 4 104 312 2 104 313 125 104 314 125 105 315 62 105 316 4 105 317 62 106 318 60 106 319 4 106 320 60 107 321 58 107 322 56 107 323 56 108 324 54 108 325 52 108 326 52 109 327 50 109 328 48 109 329 48 110 330 46 110 331 52 110 332 46 111 333 44 111 334 52 111 335 44 112 336 42 112 337 40 112 338 40 113 339 38 113 340 36 113 341 36 114 342 34 114 343 32 114 344 32 115 345 30 115 346 36 115 347 30 116 348 28 116 349 36 116 350 28 117 351 26 117 352 24 117 353 24 118 354 22 118 355 20 118 356 20 119 357 18 119 358 16 119 359 16 120 360 14 120 361 20 120 362 14 121 363 12 121 364 20 121 365 12 122 366 10 122 367 8 122 368 8 123 369 6 123 370 4 123 371 60 124 372 56 124 373 4 124 374 56 125 375 52 125 376 4 125 377 44 126 378 40 126 379 52 126 380 40 127 381 36 127 382 52 127 383 28 128 384 24 128 385 36 128 386 24 129 387 20 129 388 36 129 389 12 130 390 8 130 391 20 130 392 8 131 393 4 131 394 20 131 395 4 132 396 52 132 397 20 132 398 59 133 399 60 133 400 62 133 401 61 134 402 62 134 403 125 134 404 61 135 405 0 135 406 5 135 407 0 136 408 1 136 409 5 136 410 1 137 411 3 137 412 5 137 413 5 138 414 7 138 415 13 138 416 7 139 417 9 139 418 13 139 419 9 140 420 11 140 421 13 140 422 13 141 423 15 141 424 17 141 425 17 142 426 19 142 427 21 142 428 21 143 429 23 143 430 25 143 431 25 144 432 27 144 433 29 144 434 29 145 435 31 145 436 37 145 437 31 146 438 33 146 439 37 146 440 33 147 441 35 147 442 37 147 443 37 148 444 39 148 445 45 148 446 39 149 447 41 149 448 45 149 449 41 150 450 43 150 451 45 150 452 45 151 453 47 151 454 49 151 455 49 152 456 51 152 457 53 152 458 53 153 459 55 153 460 61 153 461 55 154 462 57 154 463 61 154 464 57 155 465 59 155 466 61 155 467 13 156 468 17 156 469 21 156 470 21 157 471 25 157 472 13 157 473 25 158 474 29 158 475 13 158 476 45 159 477 49 159 478 53 159 479 61 160 480 5 160 481 29 160 482 5 161 483 13 161 484 29 161 485 29 162 486 37 162 487 45 162 488 45 163 489 53 163 490 29 163 491 63 164 492 127 164 493 65 164 494 64 165 495 65 165 496 67 165 497 66 166 498 67 166 499 69 166 500 68 167 501 69 167 502 71 167 503 70 168 504 71 168 505 73 168 506 72 169 507 73 169 508 75 169 509 74 170 510 75 170 511 77 170 512 76 171 513 77 171 514 79 171 515 78 172 516 79 172 517 81 172 518 80 173 519 81 173 520 83 173 521 82 174 522 83 174 523 85 174 524 84 175 525 85 175 526 87 175 527 86 176 528 87 176 529 89 176 530 88 177 531 89 177 532 91 177 533 90 178 534 91 178 535 93 178 536 92 179 537 93 179 538 126 179 539 94 180 540 126 180 541 96 180 542 95 181 543 96 181 544 98 181 545 97 182 546 98 182 547 100 182 548 99 183 549 100 183 550 102 183 551 101 184 552 102 184 553 104 184 554 103 185 555 104 185 556 106 185 557 105 186 558 106 186 559 108 186 560 107 187 561 108 187 562 110 187 563 109 188 564 110 188 565 112 188 566 111 189 567 112 189 568 114 189 569 113 190 570 114 190 571 116 190 572 115 191 573 116 191 574 118 191 575 117 192 576 118 192 577 120 192 578 119 193 579 120 193 580 122 193 581 67 194 582 65 194 583 127 194 584 127 195 585 124 195 586 122 195 587 122 196 588 120 196 589 118 196 590 118 197 591 116 197 592 122 197 593 116 198 594 114 198 595 122 198 596 114 199 597 112 199 598 110 199 599 110 200 600 108 200 601 106 200 602 106 201 603 104 201 604 98 201 605 104 202 606 102 202 607 98 202 608 102 203 609 100 203 610 98 203 611 98 204 612 96 204 613 126 204 614 126 205 615 93 205 616 98 205 617 93 206 618 91 206 619 98 206 620 91 207 621 89 207 622 87 207 623 87 208 624 85 208 625 83 208 626 83 209 627 81 209 628 79 209 629 79 210 630 77 210 631 75 210 632 75 211 633 73 211 634 71 211 635 71 212 636 69 212 637 67 212 638 67 213 639 127 213 640 114 213 641 127 214 642 122 214 643 114 214 644 114 215 645 110 215 646 98 215 647 110 216 648 106 216 649 98 216 650 91 217 651 87 217 652 98 217 653 87 218 654 83 218 655 98 218 656 83 219 657 79 219 658 75 219 659 75 220 660 71 220 661 83 220 662 71 221 663 67 221 664 83 221 665 67 222 666 114 222 667 98 222 668 121 223 669 122 223 670 124 223 671 123 224 672 124 224 673 127 224 674 123 225 675 63 225 676 64 225 677 64 226 678 66 226 679 68 226 680 68 227 681 70 227 682 72 227 683 72 228 684 74 228 685 76 228 686 76 229 687 78 229 688 84 229 689 78 230 690 80 230 691 84 230 692 80 231 693 82 231 694 84 231 695 84 232 696 86 232 697 92 232 698 86 233 699 88 233 700 92 233 701 88 234 702 90 234 703 92 234 704 92 235 705 94 235 706 95 235 707 95 236 708 97 236 709 99 236 710 99 237 711 101 237 712 103 237 713 103 238 714 105 238 715 107 238 716 107 239 717 109 239 718 115 239 719 109 240 720 111 240 721 115 240 722 111 241 723 113 241 724 115 241 725 115 242 726 117 242 727 123 242 728 117 243 729 119 243 730 123 243 731 119 244 732 121 244 733 123 244 734 123 245 735 64 245 736 68 245 737 68 246 738 72 246 739 123 246 740 72 247 741 76 247 742 123 247 743 92 248 744 95 248 745 99 248 746 99 249 747 103 249 748 92 249 749 103 250 750 107 250 751 92 250 752 76 251 753 84 251 754 123 251 755 84 252 756 92 252 757 123 252 758 107 253 759 115 253 760 92 253 761 31 254 762 32 254 763 125 254 764 0 255 765 125 255 766 127 255 767 63 256 768 127 256 769 126 256 770 94 257 771 126 257 772 32 257 773 0 258 774 63 258 775 94 258 776 127 259 777 125 259 778 32 259 779</p>
        </triangles>
      </mesh>
    </geometry>
  </library_geometries>
  <library_visual_scenes>
    <visual_scene id="Scene" name="Scene">
      <node id="tmp_export_Cylinder_019" name="tmp_export_Cylinder.019" type="NODE">
        <matrix sid="transform">1 0 0 0 0 1 0 0 0 0 1 0 0 0 0 1</matrix>
        <instance_geometry url="#Cylinder_019-mesh" name="tmp_export_Cylinder.019">
          <bind_material>
            <technique_common>
              <instance_material symbol="RAIL-material" target="#RAIL-material">
                <bind_vertex_input semantic="UVMap" input_semantic="TEXCOORD" input_set="0"/>
              </instance_material>
            </technique_common>
          </bind_material>
        </instance_geometry>
      </node>
    </visual_scene>
  </library_visual_scenes>
  <scene>
    <instance_visual_scene url="#Scene"/>
  </scene>
</COLLADA>