<?xml version="1.0" encoding="utf-8"?>
<COLLADA xmlns="http://www.collada.org/2005/11/COLLADASchema" version="1.4.1" xmlns:xsi="http://www.w3.org/2001/XMLSchema-instance">
  <asset>
    <contributor>
      <author>Blender User</author>
      <authoring_tool>Blender 4.2.18 LTS commit date:2026-02-16, commit time:13:37, hash:d71e3422e438</authoring_tool>
    </contributor>
    <created>2026-05-01T23:19:05</created>
    <modified>2026-05-01T23:19:05</modified>
    <unit name="meter" meter="1"/>
    <up_axis>Z_UP</up_axis>
  </asset>
  <library_effects>
    <effect id="FINGER-effect">
      <profile_COMMON>
        <technique sid="common">
          <lambert>
            <emission>
              <color sid="emission">0 0 0 1</color>
            </emission>
            <diffuse>
              <color sid="diffuse">0.5403826 0.5403826 0.5403826 1</color>
            </diffuse>
            <index_of_refraction>
              <float sid="ior">1.5</float>
            </index_of_refraction>
          </lambert>
        </technique>
      </profile_COMMON>
    </effect>
  </library_effects>
  <library_images/>
  <library_materials>
    <material id="FINGER-material" name="FINGER">
      <instance_effect url="#FINGER-effect"/>
    </material>
  </library_materials>
  <library_geometries>
    <geometry id="Cylinder_021-mesh" name="Cylinder.021">
      <mesh>
        <source id="Cylinder_021-mesh-positions">
          <float_array id="Cylinder_021-mesh-positions-array" count="408">0 -0.625 -0.175 0 -0.625 0.175 0.02438628 -0.6274018 -0.175 0.02438628 -0.6274018 0.175 0.0478354 -0.6345151 -0.175 0.0478354 -0.6345151 0.175 0.06944626 -0.6460663 -0.175 0.06944626 -0.6460663 0.175 0.08838832 -0.6616117 -0.175 0.08838832 -0.6616117 0.175 0.1039337 -0.6805537 -0.175 0.1039337 -0.6805537 0.175 0.1154849 -0.7021646 -0.175 0.1154849 -0.7021646 0.175 0.1225981 -0.7256137 -0.175 0.1225981 -0.7256137 0.175 0.125 -0.75 -0.175 0.125 -0.75 0.175 0.1225981 -0.7743863 -0.175 0.1225981 -0.7743863 0.175 0.1154849 -0.7978354 -0.175 0.1154849 -0.7978354 0.175 0.1039337 -0.8194463 -0.175 0.1039337 -0.8194463 0.175 0.08838832 -0.8383883 -0.175 0.08838832 -0.8383883 0.175 0.06944626 -0.8539337 -0.175 0.06944626 -0.8539337 0.175 0.0478354 -0.865485 -0.175 0.0478354 -0.865485 0.175 0.02438628 -0.8725982 -0.175 0.02438628 -0.8725982 0.175 0 -0.875 -0.175 0 -0.875 0.175 -0.02438628 -0.8725982 -0.175 -0.02438628 -0.8725982 0.175 -0.0478354 -0.865485 -0.175 -0.0478354 -0.865485 0.175 -0.06944626 -0.8539337 -0.175 -0.06944626 -0.8539337 0.175 -0.08838832 -0.8383883 -0.175 -0.08838832 -0.8383883 0.175 -0.1039337 -0.8194463 -0.175 -0.1039337 -0.8194463 0.175 -0.1154849 -0.7978354 -0.175 -0.1154849 -0.7978354 0.175 -0.1225981 -0.7743863 -0.175 -0.1225981 -0.7743863 0.175 -0.125 -0.75 -0.175 -0.125 -0.75 0.175 -0.1225981 -0.7256137 -0.175 -0.1225981 -0.7256137 0.175 -0.1154849 -0.7021646 -0.175 -0.1154849 -0.7021646 0.175 -0.1039337 -0.6805537 -0.175 -0.1039337 -0.6805537 0.175 -0.08838832 -0.6616117 -0.175 -0.08838832 -0.6616117 0.175 -0.06944626 -0.6460663 -0.175 -0.06944626 -0.6460663 0.175 -0.0478354 -0.6345151 -0.175 -0.0478354 -0.6345151 0.175 -0.02438628 -0.6274018 -0.175 -0.02438628 -0.6274018 0.175 -0.125 -0.75 -0.175 -0.125 -0.75 0.175 -0.125 0.75 -0.175 -0.125 0.75 0.175 0.125 -0.75 -0.175 0.125 -0.75 0.175 0.125 0.75 -0.175 0.125 0.75 0.175 0 0.875 -0.175 0 0.875 0.175 0.02438628 0.8725982 -0.175 0.02438628 0.8725982 0.175 0.0478354 0.865485 -0.175 0.0478354 0.865485 0.175 0.06944626 0.8539337 -0.175 0.06944626 0.8539337 0.175 0.08838832 0.8383883 -0.175 0.08838832 0.8383883 0.175 0.1039337 0.8194463 -0.175 0.1039337 0.8194463 0.175 0.1154849 0.7978355 -0.175 0.1154849 0.7978355 0.175 0.1225981 0.7743863 -0.175 0.1225981 0.7743863 0.175 0.125 0.75 -0.175 0.125 0.75 0.175 0.1225981 0.7256137 -0.175 0.1225981 0.7256137 0.175 0.1154849 0.7021645 -0.175 0.1154849 0.7021645 0.175 0.1039337 0.6805537 -0.175 0.1039337 0.6805537 0.175 0.08838832 0.6616117 -0.175 0.08838832 0.6616117 0.175 0.06944626 0.6460663 -0.175 0.06944626 0.6460663 0.175 0.0478354 0.6345151 -0.175 0.0478354 0.6345151 0.175 0.02438628 0.6274018 -0.175 0.02438628 0.6274018 0.175 0 0.625 -0.175 0 0.625 0.175 -0.02438628 0.6274018 -0.175 -0.02438628 0.6274018 0.175 -0.0478354 0.6345151 -0.175 -0.0478354 0.6345151 0.175 -0.06944626 0.6460663 -0.175 -0.06944626 0.6460663 0.175 -0.08838832 0.6616117 -0.175 -0.08838832 0.6616117 0.175 -0.1039337 0.6805537 -0.175 -0.1039337 0.6805537 0.175 -0.1154849 0.7021645 -0.175 -0.1154849 0.7021645 0.175 -0.1225981 0.7256137 -0.175 -0.1225981 0.7256137 0.175 -0.125 0.75 -0.175 -0.125 0.75 0.175 -0.1225981 0.7743863 -0.175 -0.1225981 0.7743863 0.175 -0.1154849 0.7978355 -0.175 -0.1154849 0.7978355 0.175 -0.1039337 0.8194463 -0.175 -0.1039337 0.8194463 0.175 -0.08838832 0.8383883 -0.175 -0.08838832 0.8383883 0.175 -0.06944626 0.8539337 -0.175 -0.06944626 0.8539337 0.175 -0.0478354 0.865485 -0.175 -0.0478354 0.865485 0.175 -0.02438628 0.8725982 -0.175 -0.02438628 0.8725982 0.175</float_array>
          <technique_common>
            <accessor source="#Cylinder_021-mesh-positions-array" count="136" stride="3">
              <param name="X" type="float"/>
              <param name="Y" type="float"/>
              <param name="Z" type="float"/>
            </accessor>
          </technique_common>
        </source>
        <source id="Cylinder_021-mesh-normals">
          <float_array id="Cylinder_021-mesh-normals-array" count="780">0.09801667 0.9951848 0 0.2902846 0.9569404 0 0.4713975 0.8819209 0 0.6343937 0.7730101 0 0.7730103 0.6343935 0 0.8819214 0.4713966 0 0.9569402 0.2902848 0 0.9951847 0.09801727 0 0.9951847 -0.09801727 0 0.9569402 -0.2902848 0 0.8819214 -0.4713966 0 0.7730103 -0.6343935 0 0.6343937 -0.7730101 0 0.4713975 -0.8819209 0 0.2902846 -0.9569404 0 0.09801667 -0.9951848 0 -0.09801667 -0.9951848 0 -0.2902846 -0.9569404 0 -0.4713973 -0.881921 0 -0.6343937 -0.7730101 0 -0.7730103 -0.6343935 0 -0.8819214 -0.4713966 0 -0.9569402 -0.2902848 0 -0.9951847 -0.09801727 0 -0.9951847 0.09801727 0 -0.9569402 0.2902848 0 -0.8819214 0.4713966 0 -0.7730103 0.6343935 0 -0.6343937 0.7730101 0 -0.4713973 0.881921 0 0 0 1 -0.2902846 0.9569404 0 -0.09801667 0.9951848 0 0 0 -1 -1 0 0 0 1 0 1 0 0 0 -1 0 0 0 -1 0 0 1 0.09801667 0.9951848 0 0.2902846 0.9569404 0 0.4713975 0.8819209 0 0.6343937 0.7730101 0 0.7730093 0.6343947 0 0.8819214 0.4713966 0 0.9569404 0.2902842 0 0.9951847 0.09801727 0 0.9951847 -0.09801727 0 0.9569404 -0.2902842 0 0.8819214 -0.4713966 0 0.7730093 -0.6343947 0 0.6343937 -0.7730101 0 0.4713975 -0.8819209 0 0.2902846 -0.9569404 0 0.09801667 -0.9951848 0 -0.09801667 -0.9951848 0 -0.2902846 -0.9569404 0 -0.4713973 -0.881921 0 -0.6343937 -0.7730101 0 -0.7730093 -0.6343947 0 -0.8819214 -0.4713966 0 -0.9569404 -0.2902842 0 -0.9951847 -0.09801727 0 -0.9951847 0.09801727 0 -0.9569404 0.2902842 0 -0.8819214 0.4713966 0 -0.7730093 0.6343947 0 -0.6343937 0.7730101 0 -0.4713973 0.881921 0 0 0 1 -0.2902846 0.9569404 0 -0.09801667 0.9951848 0 0 0 -1 0.09801667 0.9951848 0 0.2902846 0.9569404 0 0.4713975 0.8819209 0 0.6343937 0.7730101 0 0.7730103 0.6343935 0 0.8819214 0.4713966 0 0.9569402 0.2902848 0 0.9951847 0.09801727 0 0.9951847 -0.09801727 0 0.9569402 -0.2902848 0 0.8819214 -0.4713966 0 0.7730103 -0.6343935 0 0.6343937 -0.7730101 0 0.4713975 -0.8819209 0 0.2902846 -0.9569404 0 0.09801667 -0.9951848 0 -0.09801667 -0.9951848 0 -0.2902846 -0.9569404 0 -0.4713973 -0.881921 0 -0.6343937 -0.7730101 0 -0.7730103 -0.6343935 0 -0.8819214 -0.4713966 0 -0.9569402 -0.2902848 0 -0.9951847 -0.09801727 0 -0.9951847 0.09801727 0 -0.9569402 0.2902848 0 -0.8819214 0.4713966 0 -0.7730103 0.6343935 0 -0.6343937 0.7730101 0 -0.4713973 0.881921 0 0 0 1 0 0 1 0 0 1 0 0 1 0 0 1 0 0 1 0 0 1 0 0 1 0 0 1 0 0 1 0 0 1 0 0 1 0 0 1 0 0 1 0 0 1 0 0 1 0 0 1 0 0 1 0 0 1 0 0 1 0 0 1 0 0 1 0 0 1 0 0 1 0 0 1 0 0 1 0 0 1 0 0 1 0 0 1 -0.2902846 0.9569404 0 -0.09801667 0.9951848 0 0 0 -1 0 0 -1 0 0 -1 0 0 -1 0 0 -1 0 0 -1 0 0 -1 0 0 -1 0 0 -1 0 0 -1 0 0 -1 0 0 -1 0 0 -1 0 0 -1 0 0 -1 0 0 -1 0 0 -1 0 0 -1 0 0 -1 0 0 -1 0 0 -1 0 0 -1 0 0 -1 0 0 -1 0 0 -1 0 0 -1 0 0 -1 0 0 -1 0 0 -1 -1 0 0 0 1 0 1 0 0 0 -1 0 0 0 -1 0 0 1 0.09801667 0.9951848 0 0.2902846 0.9569404 0 0.4713975 0.8819209 0 0.6343937 0.7730101 0 0.7730093 0.6343947 0 0.8819214 0.4713966 0 0.9569404 0.2902842 0 0.9951847 0.09801727 0 0.9951847 -0.09801727 0 0.9569404 -0.2902842 0 0.8819214 -0.4713966 0 0.7730093 -0.6343947 0 0.6343937 -0.7730101 0 0.4713975 -0.8819209 0 0.2902846 -0.9569404 0 0.09801667 -0.9951848 0 -0.09801667 -0.9951848 0 -0.2902846 -0.9569404 0 -0.4713973 -0.881921 0 -0.6343937 -0.7730101 0 -0.7730093 -0.6343947 0 -0.8819214 -0.4713966 0 -0.9569404 -0.2902842 0 -0.9951847 -0.09801727 0 -0.9951847 0.09801727 0 -0.9569404 0.2902842 0 -0.8819214 0.4713966 0 -0.7730093 0.6343947 0 -0.6343937 0.7730101 0 -0.4713973 0.881921 0 0 0 1 0 0 1 0 0 1 0 0 1 0 0 1 0 0 1 0 0 1 0 0 1 0 0 1 0 0 1 0 0 1 0 0 1 0 0 1 0 0 1 0 0 1 0 0 1 0 0 1 0 0 1 0 0 1 0 0 1 0 0 1 0 0 1 0 0 1 0 0 1 0 0 1 0 0 1 0 0 1 0 0 1 0 0 1 -0.2902846 0.9569404 0 -0.09801667 0.9951848 0 0 0 -1 0 0 -1 0 0 -1 0 0 -1 0 0 -1 0 0 -1 0 0 -1 0 0 -1 0 0 -1 0 0 -1 0 0 -1 0 0 -1 0 0 -1 0 0 -1 0 0 -1 0 0 -1 0 0 -1 0 0 -1 0 0 -1 0 0 -1 0 0 -1 0 0 -1 0 0 -1 0 0 -1 0 0 -1 0 0 -1 0 0 -1 0 0 -1 0 0 -1</float_array>
          <technique_common>
            <accessor source="#Cylinder_021-mesh-normals-array" count="260" stride="3">
              <param name="X" type="float"/>
              <param name="Y" type="float"/>
              <param name="Z" type="float"/>
            </accessor>
          </technique_common>
        </source>
        <source id="Cylinder_021-mesh-map-0">
          <float_array id="Cylinder_021-mesh-map-0-array" count="1560">1 0.5 0.96875 1 0.96875 0.5 0.96875 0.5 0.9375 1 0.9375 0.5 0.9375 0.5 0.90625 1 0.90625 0.5 0.90625 0.5 0.875 1 0.875 0.5 0.875 0.5 0.84375 1 0.84375 0.5 0.84375 0.5 0.8125 1 0.8125 0.5 0.8125 0.5 0.78125 1 0.78125 0.5 0.78125 0.5 0.75 1 0.75 0.5 0.75 0.5 0.71875 1 0.71875 0.5 0.71875 0.5 0.6875 1 0.6875 0.5 0.6875 0.5 0.65625 1 0.65625 0.5 0.65625 0.5 0.625 1 0.625 0.5 0.625 0.5 0.59375 1 0.59375 0.5 0.59375 0.5 0.5625 1 0.5625 0.5 0.5625 0.5 0.53125 1 0.53125 0.5 0.53125 0.5 0.5 1 0.5 0.5 0.5 0.5 0.46875 1 0.46875 0.5 0.46875 0.5 0.4375 1 0.4375 0.5 0.4375 0.5 0.40625 1 0.40625 0.5 0.40625 0.5 0.375 1 0.375 0.5 0.375 0.5 0.34375 1 0.34375 0.5 0.34375 0.5 0.3125 1 0.3125 0.5 0.3125 0.5 0.28125 1 0.28125 0.5 0.28125 0.5 0.25 1 0.25 0.5 0.25 0.5 0.21875 1 0.21875 0.5 0.21875 0.5 0.1875 1 0.1875 0.5 0.1875 0.5 0.15625 1 0.15625 0.5 0.15625 0.5 0.125 1 0.125 0.5 0.125 0.5 0.09375 1 0.09375 0.5 0.09375 0.5 0.0625 1 0.0625 0.5 0.4717311 0.341844 0.341844 0.4717311 0.1581559 0.02826887 0.0625 0.5 0.03125 1 0.03125 0.5 0.03125 0.5 0 1 0 0.5 0.7968217 0.01461154 0.5146116 0.2031783 0.7031784 0.4853885 0.375 0 0.625 0.25 0.375 0.25 0.375 0.25 0.625 0.5 0.375 0.5 0.375 0.5 0.625 0.75 0.375 0.75 0.375 0.75 0.625 1 0.375 1 0.125 0.5 0.375 0.75 0.125 0.75 0.625 0.5 0.875 0.75 0.625 0.75 1 0.5 0.96875 1 0.96875 0.5 0.96875 0.5 0.9375 1 0.9375 0.5 0.9375 0.5 0.90625 1 0.90625 0.5 0.90625 0.5 0.875 1 0.875 0.5 0.875 0.5 0.84375 1 0.84375 0.5 0.84375 0.5 0.8125 1 0.8125 0.5 0.8125 0.5 0.78125 1 0.78125 0.5 0.78125 0.5 0.75 1 0.75 0.5 0.75 0.5 0.71875 1 0.71875 0.5 0.71875 0.5 0.6875 1 0.6875 0.5 0.6875 0.5 0.65625 1 0.65625 0.5 0.65625 0.5 0.625 1 0.625 0.5 0.625 0.5 0.59375 1 0.59375 0.5 0.59375 0.5 0.5625 1 0.5625 0.5 0.5625 0.5 0.53125 1 0.53125 0.5 0.53125 0.5 0.5 1 0.5 0.5 0.5 0.5 0.46875 1 0.46875 0.5 0.46875 0.5 0.4375 1 0.4375 0.5 0.4375 0.5 0.40625 1 0.40625 0.5 0.40625 0.5 0.375 1 0.375 0.5 0.375 0.5 0.34375 1 0.34375 0.5 0.34375 0.5 0.3125 1 0.3125 0.5 0.3125 0.5 0.28125 1 0.28125 0.5 0.28125 0.5 0.25 1 0.25 0.5 0.25 0.5 0.21875 1 0.21875 0.5 0.21875 0.5 0.1875 1 0.1875 0.5 0.1875 0.5 0.15625 1 0.15625 0.5 0.15625 0.5 0.125 1 0.125 0.5 0.125 0.5 0.09375 1 0.09375 0.5 0.09375 0.5 0.0625 1 0.0625 0.5 0.1581559 0.02826887 0.4717311 0.1581559 0.341844 0.4717311 0.0625 0.5 0.03125 1 0.03125 0.5 0.03125 0.5 0 1 0 0.5 0.7968217 0.01461154 0.5146116 0.2031783 0.7031784 0.4853885 1 0.5 1 1 0.96875 1 0.96875 0.5 0.96875 1 0.9375 1 0.9375 0.5 0.9375 1 0.90625 1 0.90625 0.5 0.90625 1 0.875 1 0.875 0.5 0.875 1 0.84375 1 0.84375 0.5 0.84375 1 0.8125 1 0.8125 0.5 0.8125 1 0.78125 1 0.78125 0.5 0.78125 1 0.75 1 0.75 0.5 0.75 1 0.71875 1 0.71875 0.5 0.71875 1 0.6875 1 0.6875 0.5 0.6875 1 0.65625 1 0.65625 0.5 0.65625 1 0.625 1 0.625 0.5 0.625 1 0.59375 1 0.59375 0.5 0.59375 1 0.5625 1 0.5625 0.5 0.5625 1 0.53125 1 0.53125 0.5 0.53125 1 0.5 1 0.5 0.5 0.5 1 0.46875 1 0.46875 0.5 0.46875 1 0.4375 1 0.4375 0.5 0.4375 1 0.40625 1 0.40625 0.5 0.40625 1 0.375 1 0.375 0.5 0.375 1 0.34375 1 0.34375 0.5 0.34375 1 0.3125 1 0.3125 0.5 0.3125 1 0.28125 1 0.28125 0.5 0.28125 1 0.25 1 0.25 0.5 0.25 1 0.21875 1 0.21875 0.5 0.21875 1 0.1875 1 0.1875 0.5 0.1875 1 0.15625 1 0.15625 0.5 0.15625 1 0.125 1 0.125 0.5 0.125 1 0.09375 1 0.09375 0.5 0.09375 1 0.0625 1 0.341844 0.4717311 0.2968217 0.4853885 0.25 0.49 0.25 0.49 0.2031783 0.4853885 0.1581559 0.4717311 0.1581559 0.4717311 0.1166631 0.4495527 0.08029437 0.4197056 0.08029437 0.4197056 0.05044728 0.3833369 0.02826887 0.341844 0.02826887 0.341844 0.01461154 0.2968217 0.00999999 0.25 0.00999999 0.25 0.01461154 0.2031783 0.02826887 0.1581559 0.02826887 0.1581559 0.05044728 0.1166631 0.08029437 0.08029437 0.08029437 0.08029437 0.1166631 0.05044728 0.1581559 0.02826887 0.1581559 0.02826887 0.2031783 0.01461154 0.25 0.00999999 0.25 0.00999999 0.2968217 0.01461154 0.341844 0.02826887 0.341844 0.02826887 0.3833369 0.05044728 0.4197056 0.08029437 0.4197056 0.08029437 0.4495527 0.1166631 0.4717311 0.1581559 0.4717311 0.1581559 0.4853885 0.2031783 0.49 0.25 0.49 0.25 0.4853885 0.2968217 0.4717311 0.341844 0.4717311 0.341844 0.4495527 0.3833369 0.4197056 0.4197056 0.4197056 0.4197056 0.3833369 0.4495527 0.341844 0.4717311 0.341844 0.4717311 0.25 0.49 0.02826887 0.341844 0.25 0.49 0.1581559 0.4717311 0.02826887 0.341844 0.1581559 0.4717311 0.08029437 0.4197056 0.02826887 0.341844 0.02826887 0.341844 0.00999999 0.25 0.02826887 0.1581559 0.02826887 0.1581559 0.08029437 0.08029437 0.1581559 0.02826887 0.1581559 0.02826887 0.25 0.00999999 0.341844 0.02826887 0.341844 0.02826887 0.4197056 0.08029437 0.1581559 0.02826887 0.4197056 0.08029437 0.4717311 0.1581559 0.1581559 0.02826887 0.4717311 0.1581559 0.49 0.25 0.4717311 0.341844 0.4717311 0.341844 0.4197056 0.4197056 0.341844 0.4717311 0.02826887 0.341844 0.02826887 0.1581559 0.341844 0.4717311 0.02826887 0.1581559 0.1581559 0.02826887 0.341844 0.4717311 0.4717311 0.1581559 0.4717311 0.341844 0.1581559 0.02826887 0.0625 0.5 0.0625 1 0.03125 1 0.03125 0.5 0.03125 1 0 1 0.7031784 0.4853885 0.75 0.49 0.8833369 0.4495527 0.75 0.49 0.7968217 0.4853885 0.8833369 0.4495527 0.7968217 0.4853885 0.841844 0.4717311 0.8833369 0.4495527 0.8833369 0.4495527 0.9197056 0.4197056 0.9853885 0.2968217 0.9197056 0.4197056 0.9495527 0.3833369 0.9853885 0.2968217 0.9495527 0.3833369 0.9717311 0.341844 0.9853885 0.2968217 0.9853885 0.2968217 0.99 0.25 0.9853885 0.2031783 0.9853885 0.2031783 0.9717311 0.1581559 0.9853885 0.2968217 0.9717311 0.1581559 0.9495527 0.1166631 0.9853885 0.2968217 0.9495527 0.1166631 0.9197056 0.08029437 0.7968217 0.01461154 0.9197056 0.08029437 0.8833369 0.05044728 0.7968217 0.01461154 0.8833369 0.05044728 0.841844 0.02826887 0.7968217 0.01461154 0.7968217 0.01461154 0.75 0.00999999 0.6166632 0.05044728 0.75 0.00999999 0.7031784 0.01461154 0.6166632 0.05044728 0.7031784 0.01461154 0.658156 0.02826887 0.6166632 0.05044728 0.6166632 0.05044728 0.5802944 0.08029437 0.5146116 0.2031783 0.5802944 0.08029437 0.5504473 0.1166631 0.5146116 0.2031783 0.5504473 0.1166631 0.5282689 0.1581559 0.5146116 0.2031783 0.5146116 0.2031783 0.51 0.25 0.5146116 0.2968217 0.5146116 0.2968217 0.5282689 0.341844 0.5146116 0.2031783 0.5282689 0.341844 0.5504473 0.3833369 0.5146116 0.2031783 0.5504473 0.3833369 0.5802944 0.4197056 0.7031784 0.4853885 0.5802944 0.4197056 0.6166632 0.4495527 0.7031784 0.4853885 0.6166632 0.4495527 0.658156 0.4717311 0.7031784 0.4853885 0.7031784 0.4853885 0.8833369 0.4495527 0.9853885 0.2968217 0.9853885 0.2968217 0.9495527 0.1166631 0.7031784 0.4853885 0.9495527 0.1166631 0.7968217 0.01461154 0.7031784 0.4853885 0.7968217 0.01461154 0.6166632 0.05044728 0.5146116 0.2031783 0.5146116 0.2031783 0.5504473 0.3833369 0.7031784 0.4853885 0.375 0 0.625 0 0.625 0.25 0.375 0.25 0.625 0.25 0.625 0.5 0.375 0.5 0.625 0.5 0.625 0.75 0.375 0.75 0.625 0.75 0.625 1 0.125 0.5 0.375 0.5 0.375 0.75 0.625 0.5 0.875 0.5 0.875 0.75 1 0.5 1 1 0.96875 1 0.96875 0.5 0.96875 1 0.9375 1 0.9375 0.5 0.9375 1 0.90625 1 0.90625 0.5 0.90625 1 0.875 1 0.875 0.5 0.875 1 0.84375 1 0.84375 0.5 0.84375 1 0.8125 1 0.8125 0.5 0.8125 1 0.78125 1 0.78125 0.5 0.78125 1 0.75 1 0.75 0.5 0.75 1 0.71875 1 0.71875 0.5 0.71875 1 0.6875 1 0.6875 0.5 0.6875 1 0.65625 1 0.65625 0.5 0.65625 1 0.625 1 0.625 0.5 0.625 1 0.59375 1 0.59375 0.5 0.59375 1 0.5625 1 0.5625 0.5 0.5625 1 0.53125 1 0.53125 0.5 0.53125 1 0.5 1 0.5 0.5 0.5 1 0.46875 1 0.46875 0.5 0.46875 1 0.4375 1 0.4375 0.5 0.4375 1 0.40625 1 0.40625 0.5 0.40625 1 0.375 1 0.375 0.5 0.375 1 0.34375 1 0.34375 0.5 0.34375 1 0.3125 1 0.3125 0.5 0.3125 1 0.28125 1 0.28125 0.5 0.28125 1 0.25 1 0.25 0.5 0.25 1 0.21875 1 0.21875 0.5 0.21875 1 0.1875 1 0.1875 0.5 0.1875 1 0.15625 1 0.15625 0.5 0.15625 1 0.125 1 0.125 0.5 0.125 1 0.09375 1 0.09375 0.5 0.09375 1 0.0625 1 0.341844 0.4717311 0.2968217 0.4853885 0.25 0.49 0.25 0.49 0.2031783 0.4853885 0.1581559 0.4717311 0.1581559 0.4717311 0.1166631 0.4495527 0.08029437 0.4197056 0.08029437 0.4197056 0.05044728 0.3833369 0.02826887 0.341844 0.02826887 0.341844 0.01461154 0.2968217 0.02826887 0.1581559 0.01461154 0.2968217 0.00999999 0.25 0.02826887 0.1581559 0.00999999 0.25 0.01461154 0.2031783 0.02826887 0.1581559 0.02826887 0.1581559 0.05044728 0.1166631 0.08029437 0.08029437 0.08029437 0.08029437 0.1166631 0.05044728 0.1581559 0.02826887 0.1581559 0.02826887 0.2031783 0.01461154 0.25 0.00999999 0.25 0.00999999 0.2968217 0.01461154 0.341844 0.02826887 0.341844 0.02826887 0.3833369 0.05044728 0.4197056 0.08029437 0.4197056 0.08029437 0.4495527 0.1166631 0.4717311 0.1581559 0.4717311 0.1581559 0.4853885 0.2031783 0.49 0.25 0.49 0.25 0.4853885 0.2968217 0.4717311 0.1581559 0.4853885 0.2968217 0.4717311 0.341844 0.4717311 0.1581559 0.4717311 0.341844 0.4495527 0.3833369 0.4197056 0.4197056 0.4197056 0.4197056 0.3833369 0.4495527 0.341844 0.4717311 0.341844 0.4717311 0.25 0.49 0.1581559 0.4717311 0.1581559 0.4717311 0.08029437 0.4197056 0.341844 0.4717311 0.08029437 0.4197056 0.02826887 0.341844 0.341844 0.4717311 0.02826887 0.1581559 0.08029437 0.08029437 0.02826887 0.341844 0.08029437 0.08029437 0.1581559 0.02826887 0.02826887 0.341844 0.1581559 0.02826887 0.25 0.00999999 0.341844 0.02826887 0.341844 0.02826887 0.4197056 0.08029437 0.1581559 0.02826887 0.4197056 0.08029437 0.4717311 0.1581559 0.1581559 0.02826887 0.4717311 0.341844 0.4197056 0.4197056 0.4717311 0.1581559 0.4197056 0.4197056 0.341844 0.4717311 0.4717311 0.1581559 0.341844 0.4717311 0.02826887 0.341844 0.1581559 0.02826887 0.0625 0.5 0.0625 1 0.03125 1 0.03125 0.5 0.03125 1 0 1 0.7031784 0.4853885 0.75 0.49 0.8833369 0.4495527 0.75 0.49 0.7968217 0.4853885 0.8833369 0.4495527 0.7968217 0.4853885 0.841844 0.4717311 0.8833369 0.4495527 0.8833369 0.4495527 0.9197056 0.4197056 0.9853885 0.2968217 0.9197056 0.4197056 0.9495527 0.3833369 0.9853885 0.2968217 0.9495527 0.3833369 0.9717311 0.341844 0.9853885 0.2968217 0.9853885 0.2968217 0.99 0.25 0.9853885 0.2031783 0.9853885 0.2031783 0.9717311 0.1581559 0.9495527 0.1166631 0.9495527 0.1166631 0.9197056 0.08029437 0.7968217 0.01461154 0.9197056 0.08029437 0.8833369 0.05044728 0.7968217 0.01461154 0.8833369 0.05044728 0.841844 0.02826887 0.7968217 0.01461154 0.7968217 0.01461154 0.75 0.00999999 0.6166632 0.05044728 0.75 0.00999999 0.7031784 0.01461154 0.6166632 0.05044728 0.7031784 0.01461154 0.658156 0.02826887 0.6166632 0.05044728 0.6166632 0.05044728 0.5802944 0.08029437 0.5146116 0.2031783 0.5802944 0.08029437 0.5504473 0.1166631 0.5146116 0.2031783 0.5504473 0.1166631 0.5282689 0.1581559 0.5146116 0.2031783 0.5146116 0.2031783 0.51 0.25 0.5146116 0.2968217 0.5146116 0.2968217 0.5282689 0.341844 0.5504473 0.3833369 0.5504473 0.3833369 0.5802944 0.4197056 0.6166632 0.4495527 0.6166632 0.4495527 0.658156 0.4717311 0.7031784 0.4853885 0.9853885 0.2968217 0.9853885 0.2031783 0.7968217 0.01461154 0.9853885 0.2031783 0.9495527 0.1166631 0.7968217 0.01461154 0.5146116 0.2031783 0.5146116 0.2968217 0.5504473 0.3833369 0.5504473 0.3833369 0.6166632 0.4495527 0.5146116 0.2031783 0.6166632 0.4495527 0.7031784 0.4853885 0.5146116 0.2031783 0.7031784 0.4853885 0.8833369 0.4495527 0.7968217 0.01461154 0.8833369 0.4495527 0.9853885 0.2968217 0.7968217 0.01461154 0.7968217 0.01461154 0.6166632 0.05044728 0.5146116 0.2031783</float_array>
          <technique_common>
            <accessor source="#Cylinder_021-mesh-map-0-array" count="780" stride="2">
              <param name="S" type="float"/>
              <param name="T" type="float"/>
            </accessor>
          </technique_common>
        </source>
        <vertices id="Cylinder_021-mesh-vertices">
          <input semantic="POSITION" source="#Cylinder_021-mesh-positions"/>
        </vertices>
        <triangles material="FINGER-material" count="260">
          <input semantic="VERTEX" source="#Cylinder_021-mesh-vertices" offset="0"/>
          <input semantic="NORMAL" source="#Cylinder_021-mesh-normals" offset="1"/>
          <input semantic="TEXCOORD" source="#Cylinder_021-mesh-map-0" offset="2" set="0"/>
          <p>0 0 0 3 0 1 2 0 2 2 1 3 5 1 4 4 1 5 4 2 6 7 2 7 6 2 8 6 3 9 9 3 10 8 3 11 8 4 12 11 4 13 10 4 14 10 5 15 13 5 16 12 5 17 12 6 18 15 6 19 14 6 20 14 7 21 17 7 22 16 7 23 16 8 24 19 8 25 18 8 26 18 9 27 21 9 28 20 9 29 20 10 30 23 10 31 22 10 32 22 11 33 25 11 34 24 11 35 24 12 36 27 12 37 26 12 38 26 13 39 29 13 40 28 13 41 28 14 42 31 14 43 30 14 44 30 15 45 33 15 46 32 15 47 32 16 48 35 16 49 34 16 50 34 17 51 37 17 52 36 17 53 36 18 54 39 18 55 38 18 56 38 19 57 41 19 58 40 19 59 40 20 60 43 20 61 42 20 62 42 21 63 45 21 64 44 21 65 44 22 66 47 22 67 46 22 68 46 23 69 49 23 70 48 23 71 48 24 72 51 24 73 50 24 74 50 25 75 53 25 76 52 25 77 52 26 78 55 26 79 54 26 80 54 27 81 57 27 82 56 27 83 56 28 84 59 28 85 58 28 86 58 29 87 61 29 88 60 29 89 13 30 90 5 30 91 37 30 92 60 31 93 63 31 94 62 31 95 62 32 96 1 32 97 0 32 98 30 33 99 46 33 100 62 33 101 64 34 102 67 34 103 66 34 104 66 35 105 71 35 106 70 35 107 70 36 108 69 36 109 68 36 110 68 37 111 65 37 112 64 37 113 66 38 114 68 38 115 64 38 116 71 39 117 65 39 118 69 39 119 72 40 120 75 40 121 74 40 122 74 41 123 77 41 124 76 41 125 76 42 126 79 42 127 78 42 128 78 43 129 81 43 130 80 43 131 80 44 132 83 44 133 82 44 134 82 45 135 85 45 136 84 45 137 84 46 138 87 46 139 86 46 140 86 47 141 89 47 142 88 47 143 88 48 144 91 48 145 90 48 146 90 49 147 93 49 148 92 49 149 92 50 150 95 50 151 94 50 152 94 51 153 97 51 154 96 51 155 96 52 156 99 52 157 98 52 158 98 53 159 101 53 160 100 53 161 100 54 162 103 54 163 102 54 164 102 55 165 105 55 166 104 55 167 104 56 168 107 56 169 106 56 170 106 57 171 109 57 172 108 57 173 108 58 174 111 58 175 110 58 176 110 59 177 113 59 178 112 59 179 112 60 180 115 60 181 114 60 182 114 61 183 117 61 184 116 61 185 116 62 186 119 62 187 118 62 188 118 63 189 121 63 190 120 63 191 120 64 192 123 64 193 122 64 194 122 65 195 125 65 196 124 65 197 124 66 198 127 66 199 126 66 200 126 67 201 129 67 202 128 67 203 128 68 204 131 68 205 130 68 206 130 69 207 133 69 208 132 69 209 109 70 210 93 70 211 77 70 212 132 71 213 135 71 214 134 71 215 134 72 216 73 72 217 72 72 218 102 73 219 118 73 220 134 73 221 0 74 222 1 74 223 3 74 224 2 75 225 3 75 226 5 75 227 4 76 228 5 76 229 7 76 230 6 77 231 7 77 232 9 77 233 8 78 234 9 78 235 11 78 236 10 79 237 11 79 238 13 79 239 12 80 240 13 80 241 15 80 242 14 81 243 15 81 244 17 81 245 16 82 246 17 82 247 19 82 248 18 83 249 19 83 250 21 83 251 20 84 252 21 84 253 23 84 254 22 85 255 23 85 256 25 85 257 24 86 258 25 86 259 27 86 260 26 87 261 27 87 262 29 87 263 28 88 264 29 88 265 31 88 266 30 89 267 31 89 268 33 89 269 32 90 270 33 90 271 35 90 272 34 91 273 35 91 274 37 91 275 36 92 276 37 92 277 39 92 278 38 93 279 39 93 280 41 93 281 40 94 282 41 94 283 43 94 284 42 95 285 43 95 286 45 95 287 44 96 288 45 96 289 47 96 290 46 97 291 47 97 292 49 97 293 48 98 294 49 98 295 51 98 296 50 99 297 51 99 298 53 99 299 52 100 300 53 100 301 55 100 302 54 101 303 55 101 304 57 101 305 56 102 306 57 102 307 59 102 308 58 103 309 59 103 310 61 103 311 5 104 312 3 104 313 1 104 314 1 105 315 63 105 316 61 105 317 61 106 318 59 106 319 57 106 320 57 107 321 55 107 322 53 107 323 53 108 324 51 108 325 49 108 326 49 109 327 47 109 328 45 109 329 45 110 330 43 110 331 41 110 332 41 111 333 39 111 334 37 111 335 37 112 336 35 112 337 33 112 338 33 113 339 31 113 340 29 113 341 29 114 342 27 114 343 25 114 344 25 115 345 23 115 346 21 115 347 21 116 348 19 116 349 17 116 350 17 117 351 15 117 352 13 117 353 13 118 354 11 118 355 9 118 356 9 119 357 7 119 358 5 119 359 5 120 360 1 120 361 53 120 362 1 121 363 61 121 364 53 121 365 61 122 366 57 122 367 53 122 368 53 123 369 49 123 370 45 123 371 45 124 372 41 124 373 37 124 374 37 125 375 33 125 376 29 125 377 29 126 378 25 126 379 37 126 380 25 127 381 21 127 382 37 127 383 21 128 384 17 128 385 13 128 386 13 129 387 9 129 388 5 129 389 53 130 390 45 130 391 5 130 392 45 131 393 37 131 394 5 131 395 21 132 396 13 132 397 37 132 398 60 133 399 61 133 400 63 133 401 62 134 402 63 134 403 1 134 404 62 135 405 0 135 406 6 135 407 0 136 408 2 136 409 6 136 410 2 137 411 4 137 412 6 137 413 6 138 414 8 138 415 14 138 416 8 139 417 10 139 418 14 139 419 10 140 420 12 140 421 14 140 422 14 141 423 16 141 424 18 141 425 18 142 426 20 142 427 14 142 428 20 143 429 22 143 430 14 143 431 22 144 432 24 144 433 30 144 434 24 145 435 26 145 436 30 145 437 26 146 438 28 146 439 30 146 440 30 147 441 32 147 442 38 147 443 32 148 444 34 148 445 38 148 446 34 149 447 36 149 448 38 149 449 38 150 450 40 150 451 46 150 452 40 151 453 42 151 454 46 151 455 42 152 456 44 152 457 46 152 458 46 153 459 48 153 460 50 153 461 50 154 462 52 154 463 46 154 464 52 155 465 54 155 466 46 155 467 54 156 468 56 156 469 62 156 470 56 157 471 58 157 472 62 157 473 58 158 474 60 158 475 62 158 476 62 159 477 6 159 478 14 159 479 14 160 480 22 160 481 62 160 482 22 161 483 30 161 484 62 161 485 30 162 486 38 162 487 46 162 488 46 163 489 54 163 490 62 163 491 64 164 492 65 164 493 67 164 494 66 165 495 67 165 496 71 165 497 70 166 498 71 166 499 69 166 500 68 167 501 69 167 502 65 167 503 66 168 504 70 168 505 68 168 506 71 169 507 67 169 508 65 169 509 72 170 510 73 170 511 75 170 512 74 171 513 75 171 514 77 171 515 76 172 516 77 172 517 79 172 518 78 173 519 79 173 520 81 173 521 80 174 522 81 174 523 83 174 524 82 175 525 83 175 526 85 175 527 84 176 528 85 176 529 87 176 530 86 177 531 87 177 532 89 177 533 88 178 534 89 178 535 91 178 536 90 179 537 91 179 538 93 179 539 92 180 540 93 180 541 95 180 542 94 181 543 95 181 544 97 181 545 96 182 546 97 182 547 99 182 548 98 183 549 99 183 550 101 183 551 100 184 552 101 184 553 103 184 554 102 185 555 103 185 556 105 185 557 104 186 558 105 186 559 107 186 560 106 187 561 107 187 562 109 187 563 108 188 564 109 188 565 111 188 566 110 189 567 111 189 568 113 189 569 112 190 570 113 190 571 115 190 572 114 191 573 115 191 574 117 191 575 116 192 576 117 192 577 119 192 578 118 193 579 119 193 580 121 193 581 120 194 582 121 194 583 123 194 584 122 195 585 123 195 586 125 195 587 124 196 588 125 196 589 127 196 590 126 197 591 127 197 592 129 197 593 128 198 594 129 198 595 131 198 596 130 199 597 131 199 598 133 199 599 77 200 600 75 200 601 73 200 602 73 201 603 135 201 604 133 201 605 133 202 606 131 202 607 129 202 608 129 203 609 127 203 610 125 203 611 125 204 612 123 204 613 117 204 614 123 205 615 121 205 616 117 205 617 121 206 618 119 206 619 117 206 620 117 207 621 115 207 622 113 207 623 113 208 624 111 208 625 109 208 626 109 209 627 107 209 628 105 209 629 105 210 630 103 210 631 101 210 632 101 211 633 99 211 634 97 211 635 97 212 636 95 212 637 93 212 638 93 213 639 91 213 640 89 213 641 89 214 642 87 214 643 93 214 644 87 215 645 85 215 646 93 215 647 85 216 648 83 216 649 81 216 650 81 217 651 79 217 652 77 217 653 77 218 654 73 218 655 133 218 656 133 219 657 129 219 658 77 219 659 129 220 660 125 220 661 77 220 662 117 221 663 113 221 664 125 221 665 113 222 666 109 222 667 125 222 668 109 223 669 105 223 670 101 223 671 101 224 672 97 224 673 109 224 674 97 225 675 93 225 676 109 225 677 85 226 678 81 226 679 93 226 680 81 227 681 77 227 682 93 227 683 77 228 684 125 228 685 109 228 686 132 229 687 133 229 688 135 229 689 134 230 690 135 230 691 73 230 692 134 231 693 72 231 694 78 231 695 72 232 696 74 232 697 78 232 698 74 233 699 76 233 700 78 233 701 78 234 702 80 234 703 86 234 704 80 235 705 82 235 706 86 235 707 82 236 708 84 236 709 86 236 710 86 237 711 88 237 712 90 237 713 90 238 714 92 238 715 94 238 716 94 239 717 96 239 718 102 239 719 96 240 720 98 240 721 102 240 722 98 241 723 100 241 724 102 241 725 102 242 726 104 242 727 110 242 728 104 243 729 106 243 730 110 243 731 106 244 732 108 244 733 110 244 734 110 245 735 112 245 736 118 245 737 112 246 738 114 246 739 118 246 740 114 247 741 116 247 742 118 247 743 118 248 744 120 248 745 122 248 746 122 249 747 124 249 748 126 249 749 126 250 750 128 250 751 130 250 752 130 251 753 132 251 754 134 251 755 86 252 756 90 252 757 102 252 758 90 253 759 94 253 760 102 253 761 118 254 762 122 254 763 126 254 764 126 255 765 130 255 766 118 255 767 130 256 768 134 256 769 118 256 770 134 257 771 78 257 772 102 257 773 78 258 774 86 258 775 102 258 776 102 259 777 110 259 778 118 259 779</p>
        </triangles>
      </mesh>
    </geometry>
  </library_geometries>
  <library_visual_scenes>
    <visual_scene id="Scene" name="Scene">
      <node id="tmp_export_Cylinder_021" name="tmp_export_Cylinder.021" type="NODE">
        <matrix sid="transform">1 0 0 0 0 1 0 0 0 0 1 0 0 0 0 1</matrix>
        <instance_geometry url="#Cylinder_021-mesh" name="tmp_export_Cylinder.021">
          <bind_material>
            <technique_common>
              <instance_material symbol="FINGER-material" target="#FINGER-material">
                <bind_vertex_input semantic="UVMap" input_semantic="TEXCOORD" input_set="0"/>
              </instance_material>
            </technique_common>
          </bind_material>
        </instance_geometry>
      </node>
    </visual_scene>
  </library_visual_scenes>
  <scene>
    <instance_visual_scene url="#Scene"/>
  </scene>
</COLLADA>